<?xml version="1.0" encoding="utf-8"?>

<!-- Uploaded to: SVG Repo, www.svgrepo.com, Generator: SVG Repo Mixer Tools -->
<svg width="800px" height="800px" viewBox="0 0 64 64" xmlns="http://www.w3.org/2000/svg">

<path d="m11 8.06s0 1.5.25 1.54.83-1.17.83-1.17 1.46 1.21 1.71.92-.5-1.67-.46-1.88.46-.83.21-1.25-.87.09-.87.09-.79-2-1.09-2-.17 1.92-.29 2-2 .41-2 .62 1.71 1.13 1.71 1.13zm26.82 45.79c-4-2.29-5.25-7.42-5.08-7.58s1.25.83 3.62 1.41a26.86 26.86 0 0 0 13.8-.75c5.5-1.91 9.12-6.54 9.29-7.12s.25-2.17-.29-2.34-4.16.96-7.16 1.09-5.25-.42-5.21-.63a15.6 15.6 0 0 0 3.83-3.08c2.5-2.67 3.55-5.46 4-11.38s-.62-10.47-1.38-11.33-2.17-.08-2.42.38a24.74 24.74 0 0 1 -2.62 7.2 10.66 10.66 0 0 1 -6.2 4.46 19.8 19.8 0 0 0 -1.79-7.87c-2-4.63-6.84-8.09-13.13-9.13s-9.91.44-10.12.5c-.92.25-.55 1.29-.34 1.71s.5.17 1 .17.75-.34 4 .62 5 7.38 5 7.38a40.13 40.13 0 0 0 -5.37.33 27.14 27.14 0 0 0 -10.55 3.83c-5.12 3.13-6.5 10.42-6.5 10.8s1.21 1 1.46 1.08.5-.58 2.59-2.75a7.92 7.92 0 0 1 5.41-2.13h1.04a22.83 22.83 0 0 0 -3.09 3.34 24.67 24.67 0 0 0 -3.37 10.79c-.17 4.46 3.42 8.62 3.67 8.83s1.08 0 1.29-.29.08-1.12 0-1.83a9.13 9.13 0 0 1 1.66-5.38 13.25 13.25 0 0 1 4.55-3.08 21 21 0 0 0 .95 7.08c1.13 2.82 4.42 7.29 10.84 9.82s12 .8 12.62.38a1.51 1.51 0 0 0 .75-1.54c-.12-.49-2.75-.7-6.75-2.99zm3.59-43c1.66 2.38 1.7 6.54 1.75 6.83s.29.25.62.09.5-2.5-.75-5.92a11.32 11.32 0 0 0 -4.58-5.58 2.91 2.91 0 0 0 -.88.41 26.35 26.35 0 0 1 3.84 4.21zm8.29-3c.21 0 0 2.17.37 2.29s.93-1.14 1.09-1.29 1 .17 1 .17l.16-1.3s.42-.54.38-.79-1-.29-1.17-.25-.87-1.68-1.33-1.62-.38 1.46-.46 1.62-1.57-.13-1.63.13c-.11.58 1.38 1.04 1.59 1.04zm4.5 25 .5.75a13.58 13.58 0 0 0 1.75-1.79 11.69 11.69 0 0 0 2.12-4.13c.09-.17-.76-.53-.91-.46-.42.21-.92 1.67-1.38 3a7.36 7.36 0 0 1 -2.08 2.59zm-.59 19.5c-.12-.25-4 .29-6.5 0s-4.76-1.6-4.91-1.5a1.27 1.27 0 0 0 -.5 1.21c.08.58 2.16.83 4.91 1.29a23.77 23.77 0 0 0 7 0 1.25 1.25 0 0 0 0-1.04zm-.79 3.16c-2 .67-2.33 2.8-1.12 3.63s3.91.5 4-1.5a2.11 2.11 0 0 0 -2.88-2.17zm6.88-4.33a.56.56 0 0 0 .08-.75 1.56 1.56 0 0 0 -1-.25c-.21 0-.58-1.42-1-1.46s-.58 1.59-.63 1.84-1.15-.11-1.15.08c0 .54 1.16.88 1.16.88s-.37 1.33-.12 1.62 1-.46 1-.46.58.34.92.17-.38-1.29-.38-1.42.91-.16 1.12-.29zm-50.25 4.13c-.42 0-.63 1.33-.71 1.54l-1.74.46a1.09 1.09 0 0 0 .17.79c.25.25 1.21.21 1.21.21s0 1.29.29 1.41 1-.7 1.16-.87 1.34.37 1.46.17-.29-.92-.25-1.13.67-.58.63-.75-1.17-.17-1.34-.21-.47-1.58-.88-1.62zm9-1.21c-2.17-3.5-.33-7.13-.29-7.33s-.53-.45-.67-.3c-1.17 1.3-1.58 4.5-.58 7s4.25 6 4.62 5.92.75-.33.63-.75-1.5-1.04-3.67-4.54zm-10-39c.33.08 1.54-.67 4.08-1.21a8.62 8.62 0 0 1 4.92.59 1.38 1.38 0 0 0 .25-.71c0-.38-2.42-1.5-5.17-1.17s-4.65 1.4-4.53 1.5.16.96.49 1.04z" fill="url(#gradient)"/>

<path d="m23 8.72c.25-.08 8.75 0 12.63 4.42s4.37 10.38 4.44 11.17 0 1.66.38 1.79 2.41 0 5-1.67a12 12 0 0 0 4.25-4.29c1.08-1.62 2.25-4.75 2.62-4.83s1.68 6.16-.32 12.69-5.59 8.72-6.68 9-1.58.16-1.79.45.33 1.34.58 1.42-.08.92 4.88 1 7.83-.62 7.92-.37-2 3.71-6 5.16-9 2-11.09 1.67a37.7 37.7 0 0 1 -6.58-2c-.67-.33-1.33-.71-1.75-.46s-1.37 3.38.79 6.59a28.43 28.43 0 0 0 6.54 6.33c.67.46 1.09.54.92.71s-6.54.18-10.74-2.5-7.13-8.17-7.5-9.46-.5-5.07-.64-5.54-1.33-.8-2-.46-4.41 1.93-5.86 4.68-1.46 3.21-1.46 3.21a11.44 11.44 0 0 1 -1.17-8.37 21 21 0 0 1 6-9.71c1.3-.92 2.34-1.5 2.3-1.67a7.89 7.89 0 0 0 -4.75-1 19.63 19.63 0 0 0 -5.46 1.71 8.37 8.37 0 0 1 -1.63.88s2-3.88 3.92-5.42a24.76 24.76 0 0 1 11-4.46 43.91 43.91 0 0 1 6.79-.54.94.94 0 0 0 .37-.33s-.33-3.67-2.08-5.88a31.73 31.73 0 0 0 -3.83-3.92z" fill="url(#gradient)"/>

<defs>
  <linearGradient id="gradient" x1="0%" y1="0%" x2="0%" y2="100%">
    <stop offset="20%" stop-color="#5851DB"/>
    <stop offset="50%" stop-color="#E1306C"/>
    <stop offset="100%" stop-color="#ffff00"/>
  </linearGradient>
</defs>

<path d="m53.28 56.31c1.07-.42 1.79.87 1.67 1.62s-1.71 1.13-2.46.71-.71-1.75.79-2.33z" fill="#ffff00"/>


</svg>