<?xml version="1.0" encoding="utf-8"?>
<!-- Uploaded to: SVG Repo, www.svgrepo.com, Generator: SVG Repo Mixer Tools -->
<svg width="800px" height="800px" viewBox="0 0 1024 1024" class="icon"  version="1.1" xmlns="http://www.w3.org/2000/svg"><path d="M709.584271 433.337962V415.843857h-5.983586v-7.851152H303.708961v8.237157h-9.917354v239.885069c5.733758 6.936823 12.330651 15.225175 18.039836 22.488617h393.091078v-9.978786h9.830323V433.337962h-5.168573z" fill="#F26E3F" /><path d="M330.154895 384.418769h37.715839v24.62649H330.154895z" fill="#33B88C" /><path d="M430.825348 394.228614c0.283616 0.037884 17.582159-49.305198 31.760922-49.588814 14.178764-0.283616 75.999936 0 75.999936 0s13.044299 4.940247 21.551763 24.730926 17.014926 33.118595 16.164077 33.969444c-0.850849 0.850849-147.744605 0-147.744604 0l2.267906-9.111556z" fill="#F26E3F" /><path d="M387.154591 545.919273a117.118147 113.999392 0 1 0 234.236293 0 117.118147 113.999392 0 1 0-234.236293 0Z" fill="#33B88C" /><path d="M415.512119 543.083111a89.895084 89.044235 0 1 0 179.790167 0 89.895084 89.044235 0 1 0-179.790167 0Z" fill="#F2C928" /><path d="M183.196634 595.096485c-5.957989 0-10.804038-4.847073-10.804038-10.805062 0-5.956965 4.845025-10.805062 10.804038-10.805061 5.959013 0 10.804038 4.847073 10.804038 10.805061-0.001024 5.956965-4.846049 10.805062-10.804038 10.805062m0-32.413138c-11.93236 0-21.607052 9.674692-21.607052 21.607052 0 11.93236 9.674692 21.607052 21.607052 21.607052 11.93236 0 21.607052-9.674692 21.607052-21.607052 0-11.931336-9.674692-21.607052-21.607052-21.607052M212.441871 353.423713l11.479802-11.478779c2.064153-2.05801 2.090774-5.509527-0.021502-7.616683a5.365159 5.365159 0 0 0-7.616683-0.022525l-11.479802 11.478778-11.479802-11.478778c-2.05801-2.062105-5.509527-2.091798-7.616683 0.022525a5.365159 5.365159 0 0 0-0.020478 7.616683l11.479802 11.478779-11.479802 11.478778c-2.064153 2.05801-2.090774 5.509527 0.020478 7.616683a5.365159 5.365159 0 0 0 7.616683 0.022525l11.479802-11.478778 11.479802 11.478778c2.05801 2.065177 5.504408 2.091798 7.616683-0.022525a5.365159 5.365159 0 0 0 0.021502-7.616683l-11.479802-11.478778zM184.110964 484.661238a5.39178 5.39178 0 0 0 5.400995-5.404067 5.386661 5.386661 0 0 0-5.400995-5.400995 5.388708 5.388708 0 0 0-5.400996 5.400995 5.385637 5.385637 0 0 0 5.400996 5.404067M248.741677 638.576799a5.389732 5.389732 0 0 0 5.400995-5.400995 5.387685 5.387685 0 0 0-5.400995-5.403043 5.389732 5.389732 0 0 0-5.400995 5.403043 5.385637 5.385637 0 0 0 5.400995 5.400995M70.575392 619.707617a5.389732 5.389732 0 0 0 5.400995-5.400995 5.387685 5.387685 0 0 0-5.400995-5.403043 5.389732 5.389732 0 0 0-5.400996 5.403043 5.385637 5.385637 0 0 0 5.400996 5.400995M106.560865 317.876462a5.39178 5.39178 0 0 0 5.400995-5.403043 5.386661 5.386661 0 0 0-5.400995-5.400995 5.388708 5.388708 0 0 0-5.400995 5.400995 5.385637 5.385637 0 0 0 5.400995 5.403043" fill="#404041" /><path d="M254.64028 487.993985a2.83821 2.83821 0 0 1-2.83821-2.836163v-11.801302a2.83821 2.83821 0 0 1 5.67642 0v11.801302c0 1.566545-1.272689 2.836162-2.83821 2.836163z" fill="#404041" /><path d="M260.539908 482.09231h-11.799255a2.83821 2.83821 0 0 1-2.83821-2.836163 2.83821 2.83821 0 0 1 2.83821-2.836162h11.799255a2.83821 2.83821 0 0 1 2.83821 2.836162 2.839234 2.839234 0 0 1-2.83821 2.836163z" fill="#404041" /><path d="M207.212888 693.038284a2.83821 2.83821 0 0 1-2.83821-2.835139v-11.801302a2.83821 2.83821 0 0 1 5.67642 0v11.801302a2.839234 2.839234 0 0 1-2.83821 2.835139z" fill="#404041" /><path d="M213.111492 687.136609h-11.799255a2.83821 2.83821 0 0 1-2.83821-2.835139 2.83821 2.83821 0 0 1 2.83821-2.836162h11.799255a2.83821 2.83821 0 0 1 2.83821 2.836162 2.837186 2.837186 0 0 1-2.83821 2.835139z" fill="#404041" /><path d="M143.889676 751.264594a2.83821 2.83821 0 0 1-2.83821-2.835138v-11.799255a2.83821 2.83821 0 0 1 5.67642 0v11.799255a2.839234 2.839234 0 0 1-2.83821 2.835138z" fill="#404041" /><path d="M149.789304 745.364967h-11.799255a2.83821 2.83821 0 0 1-2.83821-2.835138 2.83821 2.83821 0 0 1 2.83821-2.836163h11.799255a2.83821 2.83821 0 0 1 2.83821 2.836163 2.839234 2.839234 0 0 1-2.83821 2.835138z" fill="#404041" /><path d="M266.44363 267.775705a2.83821 2.83821 0 0 1-2.83821-2.836162v-11.799255a2.83821 2.83821 0 0 1 5.67642 0v11.799255a2.839234 2.839234 0 0 1-2.83821 2.836162z" fill="#404041" /><path d="M272.342234 261.876078h-11.80335a2.83821 2.83821 0 0 1-2.83821-2.836162 2.83821 2.83821 0 0 1 2.83821-2.836163h11.80335a2.83821 2.83821 0 0 1 2.83821 2.836163c0 1.566545-1.271666 2.836162-2.83821 2.836162z" fill="#404041" /><path d="M81.878062 487.993985a2.83821 2.83821 0 0 1-2.83821-2.836163v-11.801302a2.83821 2.83821 0 0 1 5.67642 0v11.801302a2.839234 2.839234 0 0 1-2.83821 2.836163z" fill="#404041" /><path d="M87.777689 482.09231H75.978434a2.83821 2.83821 0 0 1-2.83821-2.836163 2.83821 2.83821 0 0 1 2.83821-2.836162h11.799255a2.83821 2.83821 0 0 1 2.83821 2.836162 2.839234 2.839234 0 0 1-2.83821 2.836163z" fill="#404041" /><path d="M295.172829 779.300622a2.83821 2.83821 0 0 1-2.83821-2.835138v-11.799255a2.83821 2.83821 0 0 1 5.67642 0v11.799255a2.83821 2.83821 0 0 1-2.83821 2.835138z" fill="#404041" /><path d="M301.072456 773.402019h-11.80335c-1.565521 0-2.83821-1.269618-2.83821-2.836162s1.271666-2.836162 2.83821-2.836163h11.80335c1.565521 0 2.83821 1.269618 2.83821 2.836163s-1.272689 2.836162-2.83821 2.836162z" fill="#404041" /><path d="M836.188715 595.096485c-5.956965 0-10.803014-4.847073-10.803014-10.805062 0-5.956965 4.845025-10.805062 10.803014-10.805061 5.960036 0 10.805062 4.847073 10.805062 10.805061-0.001024 5.956965-4.846049 10.805062-10.805062 10.805062m0-32.413138c-11.93236 0-21.607052 9.674692-21.607052 21.607052 0 11.93236 9.674692 21.607052 21.607052 21.607052s21.607052-9.674692 21.607052-21.607052c0-11.931336-9.674692-21.607052-21.607052-21.607052M806.944502 353.423713l-11.480826-11.478779c-2.063129-2.05801-2.088726-5.509527 0.022526-7.616683a5.365159 5.365159 0 0 1 7.616682-0.022525l11.478779 11.478778 11.480826-11.478778c2.05801-2.062105 5.509527-2.091798 7.616683 0.022525a5.365159 5.365159 0 0 1 0.020478 7.616683l-11.478779 11.478779 11.478779 11.478778c2.065177 2.05801 2.091798 5.509527-0.020478 7.616683a5.365159 5.365159 0 0 1-7.616683 0.022525l-11.480826-11.478778-11.478779 11.478778c-2.05801 2.065177-5.505431 2.091798-7.616682-0.022525a5.365159 5.365159 0 0 1-0.022526-7.616683l11.480826-11.478778zM835.274385 484.661238a5.39178 5.39178 0 0 1-5.400995-5.404067 5.386661 5.386661 0 0 1 5.400995-5.400995 5.388708 5.388708 0 0 1 5.400995 5.400995 5.385637 5.385637 0 0 1-5.400995 5.404067M770.643672 638.576799a5.389732 5.389732 0 0 1-5.400995-5.400995 5.387685 5.387685 0 0 1 5.400995-5.403043 5.389732 5.389732 0 0 1 5.400995 5.403043 5.385637 5.385637 0 0 1-5.400995 5.400995M609.242485 775.967876a5.389732 5.389732 0 0 1-5.400995-5.400995 5.388708 5.388708 0 0 1 5.400995-5.404067 5.390756 5.390756 0 0 1 5.400995 5.404067 5.385637 5.385637 0 0 1-5.400995 5.400995M403.659622 742.031197a5.389732 5.389732 0 0 1-5.400995-5.400996 5.386661 5.386661 0 0 1 5.400995-5.403042 5.389732 5.389732 0 0 1 5.400995 5.403042 5.384613 5.384613 0 0 1-5.400995 5.400996M948.809957 619.707617a5.389732 5.389732 0 0 1-5.400995-5.400995 5.387685 5.387685 0 0 1 5.400995-5.403043 5.389732 5.389732 0 0 1 5.400995 5.403043 5.385637 5.385637 0 0 1-5.400995 5.400995M912.82346 317.876462a5.39178 5.39178 0 0 1-5.400995-5.403043 5.386661 5.386661 0 0 1 5.400995-5.400995 5.388708 5.388708 0 0 1 5.400995 5.400995 5.385637 5.385637 0 0 1-5.400995 5.403043" fill="#404041" /><path d="M764.741997 487.993985a2.83821 2.83821 0 0 1-2.83821-2.836163v-11.801302a2.83821 2.83821 0 0 1 5.67642 0v11.801302c0 1.566545-1.271666 2.836162-2.83821 2.836163z" fill="#404041" /><path d="M770.641624 482.09231h-11.799254a2.83821 2.83821 0 0 1-2.83821-2.836163 2.83821 2.83821 0 0 1 2.83821-2.836162h11.799254a2.83821 2.83821 0 0 1 2.83821 2.836162c0 1.566545-1.271666 2.836162-2.83821 2.836163z" fill="#404041" /><path d="M812.174508 693.038284a2.83821 2.83821 0 0 1-2.83821-2.835139v-11.801302a2.83821 2.83821 0 0 1 5.676421 0v11.801302a2.83821 2.83821 0 0 1-2.838211 2.835139z" fill="#404041" /><path d="M818.074136 687.136609h-11.799255a2.83821 2.83821 0 0 1-2.83821-2.835139 2.83821 2.83821 0 0 1 2.83821-2.836162h11.799255a2.83821 2.83821 0 0 1 2.83821 2.836162 2.839234 2.839234 0 0 1-2.83821 2.835139z" fill="#404041" /><path d="M875.493625 751.264594a2.83821 2.83821 0 0 1-2.83821-2.835138v-11.799255a2.83821 2.83821 0 0 1 5.67642 0v11.799255a2.839234 2.839234 0 0 1-2.83821 2.835138z" fill="#404041" /><path d="M881.397347 745.364967h-11.80335a2.83821 2.83821 0 0 1-2.83821-2.835138 2.83821 2.83821 0 0 1 2.83821-2.836163h11.80335a2.83821 2.83821 0 0 1 2.838211 2.836163 2.839234 2.839234 0 0 1-2.838211 2.835138z" fill="#404041" /><path d="M752.943766 267.775705a2.83821 2.83821 0 0 1-2.83821-2.836162v-11.799255a2.83821 2.83821 0 0 1 5.67642 0v11.799255c0 1.566545-1.272689 2.836162-2.83821 2.836162z" fill="#404041" /><path d="M758.843394 261.876078h-11.799255a2.83821 2.83821 0 0 1-2.83821-2.836162 2.83821 2.83821 0 0 1 2.83821-2.836163h11.799255a2.83821 2.83821 0 0 1 2.83821 2.836163 2.839234 2.839234 0 0 1-2.83821 2.836162z" fill="#404041" /><path d="M683.953349 341.464732a2.83821 2.83821 0 0 1-2.83821-2.836162v-11.799255a2.83821 2.83821 0 0 1 5.67642 0v11.799255c0 1.566545-1.271666 2.836162-2.83821 2.836162z" fill="#404041" /><path d="M689.852976 335.566129h-11.79823c-1.565521 0-2.83821-1.269618-2.83821-2.836163s1.271666-2.836162 2.83821-2.836162h11.79823c1.565521 0 2.83821 1.269618 2.838211 2.836162s-1.272689 2.836162-2.838211 2.836163z" fill="#404041" /><path d="M937.509335 487.993985a2.83821 2.83821 0 0 1-2.83821-2.836163v-11.801302a2.83821 2.83821 0 0 1 5.67642 0v11.801302a2.839234 2.839234 0 0 1-2.83821 2.836163z" fill="#404041" /><path d="M943.408962 482.09231h-11.799254a2.83821 2.83821 0 0 1-2.83821-2.836163 2.83821 2.83821 0 0 1 2.83821-2.836162h11.799254a2.83821 2.83821 0 0 1 2.83821 2.836162 2.839234 2.839234 0 0 1-2.83821 2.836163z" fill="#404041" /><path d="M724.214568 779.300622a2.83821 2.83821 0 0 1-2.83821-2.835138v-11.799255a2.83821 2.83821 0 0 1 5.67642 0v11.799255a2.839234 2.839234 0 0 1-2.83821 2.835138z" fill="#404041" /><path d="M730.113171 773.402019h-11.79823c-1.565521 0-2.83821-1.269618-2.83821-2.836162s1.271666-2.836162 2.83821-2.836163h11.79823c1.565521 0 2.83821 1.269618 2.83821 2.836163s-1.271666 2.836162-2.83821 2.836162z" fill="#404041" /><path d="M519.174364 750.766986a2.83821 2.83821 0 0 1-2.83821-2.836162v-11.798231a2.83821 2.83821 0 0 1 5.676421 0v11.798231a2.839234 2.839234 0 0 1-2.838211 2.836162z" fill="#404041" /><path d="M525.073992 744.867359h-11.799255a2.83821 2.83821 0 0 1-2.83821-2.835139 2.83821 2.83821 0 0 1 2.83821-2.836162h11.799255a2.83821 2.83821 0 0 1 2.83821 2.836162 2.839234 2.839234 0 0 1-2.83821 2.835139z" fill="#404041" /><path d="M370.777545 323.278481a5.389732 5.389732 0 0 1-5.400995-5.400995 5.387685 5.387685 0 0 1 5.400995-5.403043 5.389732 5.389732 0 0 1 5.400995 5.403043 5.385637 5.385637 0 0 1-5.400995 5.400995M614.64348 261.740925a5.389732 5.389732 0 0 1-5.400995-5.400995 5.387685 5.387685 0 0 1 5.400995-5.403043 5.389732 5.389732 0 0 1 5.400995 5.403043 5.385637 5.385637 0 0 1-5.400995 5.400995M614.64348 353.269106a5.389732 5.389732 0 0 1-5.400995-5.400995 5.387685 5.387685 0 0 1 5.400995-5.403043 5.389732 5.389732 0 0 1 5.400995 5.403043 5.385637 5.385637 0 0 1-5.400995 5.400995" fill="#404041" /><path d="M506.884669 259.174045a2.83821 2.83821 0 0 1-2.83821-2.836163v-11.799254a2.83821 2.83821 0 0 1 5.67642 0v11.799254a2.839234 2.839234 0 0 1-2.83821 2.836163z" fill="#404041" /><path d="M512.783272 253.274417H500.979922a2.83821 2.83821 0 0 1-2.83821-2.836162 2.83821 2.83821 0 0 1 2.83821-2.836162h11.80335a2.83821 2.83821 0 0 1 2.83821 2.836162c0 1.566545-1.271666 2.836162-2.83821 2.836162z" fill="#404041" /><path d="M292.310045 537.933991m-7.264466 0a7.264466 7.264466 0 1 0 14.528933 0 7.264466 7.264466 0 1 0-14.528933 0Z" fill="#404041" /><path d="M714.753868 607.792663m-7.264467 0a7.264466 7.264466 0 1 0 14.528933 0 7.264466 7.264466 0 1 0-14.528933 0Z" fill="#404041" /><path d="M331.175708 406.453805a6.409522 6.409522 0 0 0 6.457645-6.26413v-8.240229h25.349353v8.240229a6.432048 6.432048 0 0 0 6.433071 6.432047 6.432048 6.432048 0 0 0 6.433072-6.432047v-14.457261a6.409522 6.409522 0 0 0-6.409522-6.409522h-38.552354a6.409522 6.409522 0 0 0-6.119763 6.409522v14.457261a6.40645 6.40645 0 0 0 6.408498 6.26413zM506.137233 422.297407c-67.149471 0-121.584335 54.435887-121.584335 121.585358 0 67.148447 54.434863 121.586382 121.584335 121.586382 67.131041 0 121.558737-54.408242 121.586382-121.539283-0.05529-67.134113-54.451245-121.553618-121.586382-121.632457z m0 228.568064c-59.08535 0-106.982706-47.897355-106.982706-106.982706 0-59.086374 47.898379-106.982706 106.982706-106.982706 59.086374 0 106.982706 47.896332 106.982706 106.982706-0.025597 59.082279-47.899403 106.97861-106.982706 107.029805v-0.047099z" fill="#404041" /><path d="M506.137233 447.983618c-52.989137 0-95.94727 42.956085-95.94727 95.945222 0 52.993233 42.957109 95.949318 95.94727 95.949318 52.990161 0 95.948294-42.957109 95.948293-95.949318-0.079863-52.955349-42.989873-95.866383-95.948293-95.945222z m0 177.292911c-44.92604 0-81.345641-36.420625-81.345642-81.347689 0-44.925016 36.418577-81.345641 81.345642-81.345641 44.92604 0 81.346665 36.420625 81.346665 81.345641-0.054266 44.904539-36.44315 81.293423-81.346665 81.347689zM527.84053 371.552626h-50.214408a6.433071 6.433071 0 0 0 0 12.866143h50.214408a6.433071 6.433071 0 1 0 0-12.866143z" fill="#404041" /><path d="M448.789416 514.003744a4.535812 4.535812 0 0 1-4.499976-5.150144c2.648791-19.426176 22.185547-24.733998 23.01387-24.951061a4.531716 4.531716 0 0 1 5.535124 3.245716 4.53786 4.53786 0 0 1-3.232406 5.533077c-0.675764 0.182252-14.513574 4.100661-16.324827 17.395811a4.538884 4.538884 0 0 1-4.491785 3.926601zM539.815893 608.583103a4.53786 4.53786 0 0 1-1.153919-8.926233c0.689075-0.186347 14.513574-4.109876 16.325851-17.395811a4.505095 4.505095 0 0 1 5.110212-3.883597 4.535812 4.535812 0 0 1 3.881549 5.108164c-2.648791 19.422081-22.185547 24.733998-23.01387 24.951061a4.529669 4.529669 0 0 1-1.149823 0.146416zM292.310045 522.791751c-3.552882 0-6.433071-2.794183-6.433071-6.238533v-18.716624c0-3.445374 2.880189-6.238533 6.433071-6.238533 3.553906 0 6.434095 2.793159 6.434096 6.238533v18.716624c-0.001024 3.445374-2.881213 6.238533-6.434096 6.238533zM713.158654 594.253828c-3.552882 0-6.433071-2.794183-6.433071-6.238534v-18.716623c0-3.446398 2.880189-6.238533 6.433071-6.238534 3.553906 0 6.434095 2.792135 6.434096 6.238534v18.716623c0 3.445374-2.880189 6.238533-6.434096 6.238534zM713.158654 652.955221c-3.552882 0-6.433071-2.794183-6.433071-6.238533v-18.716624c0-3.446398 2.880189-6.238533 6.433071-6.238533 3.553906 0 6.434095 2.792135 6.434096 6.238533v18.716624c0 3.44435-2.880189 6.238533-6.434096 6.238533zM682.351993 452.148783c0-3.553906 2.794183-6.434095 6.238533-6.434095h18.716624c3.446398 0 6.238533 2.880189 6.238533 6.434095 0 3.553906-2.792135 6.434095-6.238533 6.434096h-18.716624c-3.445374 0-6.238533-2.880189-6.238533-6.434096zM467.278737 347.866063c0-3.553906 2.794183-6.434095 6.238533-6.434095h8.507463c3.446398 0 6.238533 2.880189 6.238534 6.434095s-2.792135 6.434095-6.238534 6.434095h-8.507463c-3.445374 0-6.238533-2.880189-6.238533-6.434095zM595.301262 407.991681c0-3.553906 2.794183-6.434095 6.238534-6.434095h8.507463c3.446398 0 6.238533 2.880189 6.238533 6.434095s-2.792135 6.434095-6.238533 6.434095h-8.507463c-3.44435 0-6.238533-2.880189-6.238534-6.434095zM648.331355 407.991681c0-3.553906 2.794183-6.434095 6.238533-6.434095h8.507463c3.446398 0 6.238533 2.880189 6.238534 6.434095s-2.792135 6.434095-6.238534 6.434095h-8.507463c-3.445374 0-6.238533-2.880189-6.238533-6.434095zM519.173341 347.866063c0-3.553906 2.794183-6.434095 6.238533-6.434095h8.507463c3.446398 0 6.238533 2.880189 6.238533 6.434095s-2.792135 6.434095-6.238533 6.434095h-8.507463c-3.44435 0-6.238533-2.880189-6.238533-6.434095zM292.310045 586.029981c-3.552882 0-6.433071-2.794183-6.433071-6.238534v-18.716623c0-3.446398 2.880189-6.238533 6.433071-6.238534 3.553906 0 6.434095 2.792135 6.434096 6.238534v18.716623c-0.001024 3.445374-2.881213 6.238533-6.434096 6.238534z" fill="#404041" /><path d="M505.123586 348.69541m-7.264466 0a7.264466 7.264466 0 1 0 14.528933 0 7.264466 7.264466 0 1 0-14.528933 0Z" fill="#404041" /><path d="M633.301742 407.990657m-7.264466 0a7.264466 7.264466 0 1 0 14.528933 0 7.264466 7.264466 0 1 0-14.528933 0Z" fill="#404041" /><path d="M512.671669 543.081063c0 4.012607-3.253908 7.266514-7.264467 7.266514s-7.264466-3.254931-7.264466-7.266514a7.26549 7.26549 0 0 1 14.528933 0zM350.307006 458.389364h-57.997985c-3.447422 0-6.237509-2.794183-6.237509-6.239557s2.790088-6.239557 6.237509-6.239557h57.997985c3.447422 0 6.237509 2.794183 6.237509 6.239557s-2.790088 6.239557-6.237509 6.239557zM711.349449 480.317916h-57.997984c-3.447422 0-6.237509-2.794183-6.23751-6.239557s2.790088-6.239557 6.23751-6.239557h57.997984c3.447422 0 6.237509 2.794183 6.237509 6.239557s-2.790088 6.239557-6.237509 6.239557zM706.725583 632.127346v20.037436c-0.026621 11.727583-9.525205 21.227191-21.252788 21.252787H319.994881c-11.725535-0.025597-21.225143-9.525205-21.251764-21.252787v-88.474955h-12.867167v88.474955c0.025597 18.832323 15.286608 34.094357 34.118931 34.11893h365.47689c18.832323-0.025597 34.093334-15.286608 34.119955-34.11893v-20.037436h-12.866143z" fill="#404041" /><path d="M321.549138 466.872254h-22.806021v-31.130209c0.026621-11.726559 9.526229-21.227191 21.251764-21.252788h288.634297v-12.866143h-28.501896l-17.829939-41.395683a31.036012 31.036012 0 0 0-28.528517-18.795463h-2.556642v12.915289h2.556642a18.21492 18.21492 0 0 1 16.721071 10.988337l15.663398 36.28752H439.073768l15.469883-36.28752a18.217992 18.217992 0 0 1 16.722095-10.988337h2.663126v-12.915289h-2.470635a31.036012 31.036012 0 0 0-28.529541 18.795463l-17.829939 41.395683H319.994881c-18.832323 0.025597-34.09231 15.286608-34.118931 34.118931v80.116979h12.867167v-36.119603h22.806021a6.433071 6.433071 0 1 0 0-12.867167zM685.472795 401.624138h-23.528885v12.866143h23.528885c11.727583 0.025597 21.226167 9.526229 21.252788 21.252788v150.287936h12.867167V435.742045c-0.026621-18.831299-15.287632-34.09231-34.119955-34.117907z" fill="#404041" /></svg>