<?xml version="1.0" encoding="utf-8"?>
<!-- Uploaded to: SVG Repo, www.svgrepo.com, Generator: SVG Repo Mixer Tools -->
<svg width="800px" height="800px" viewBox="0 0 1024 1024" class="icon"  version="1.1" xmlns="http://www.w3.org/2000/svg"><path d="M220.038076 665.199866c-6.316349 0-11.452157-5.137857-11.452158-11.453182s5.135809-11.453181 11.452158-11.453181c6.316349 0 11.452157 5.137857 11.452157 11.453181s-5.135809 11.453181-11.452157 11.453182m0-34.356472c-12.648055 0-22.904315 10.255235-22.904315 22.904314 0 12.648055 10.255235 22.904315 22.904315 22.904315 12.648055 0 22.904315-10.255235 22.904314-22.904315 0-12.649079-10.256259-22.904315-22.904314-22.904314M237.519894 400.611516l12.167853-12.16683c2.188043-2.1819 2.215688-5.840242-0.022526-8.073336a5.687683 5.687683 0 0 0-8.073335-0.023549l-12.167853 12.166829-12.167854-12.166829c-2.1819-2.185995-5.840242-2.216712-8.073335 0.023549a5.687683 5.687683 0 0 0-0.022526 8.073336l12.167853 12.16683-12.167853 12.166829c-2.187019 2.1819-2.215688 5.840242 0.022526 8.073336a5.684611 5.684611 0 0 0 8.073335 0.023549l12.167854-12.166829 12.167853 12.166829c2.1819 2.189067 5.835122 2.216712 8.073335-0.023549a5.687683 5.687683 0 0 0 0.022526-8.073336l-12.167853-12.166829zM221.007695 548.14008a5.715328 5.715328 0 0 0 5.725567-5.727614c0-3.182236-2.559713-5.725567-5.725567-5.725567a5.71328 5.71328 0 0 0-5.725567 5.725567 5.709185 5.709185 0 0 0 5.725567 5.727614M160.646584 741.795703a5.715328 5.715328 0 0 0 5.725566-5.727615c0-3.182236-2.559713-5.725567-5.725566-5.725566a5.71328 5.71328 0 0 0-5.725567 5.725566 5.709185 5.709185 0 0 0 5.725567 5.727615M124.37647 323.183259a5.715328 5.715328 0 0 0 5.725567-5.727614c0-3.182236-2.559713-5.725567-5.725567-5.725567a5.71328 5.71328 0 0 0-5.725567 5.725567 5.709185 5.709185 0 0 0 5.725567 5.727614M100.660214 691.288464a5.71328 5.71328 0 0 0 5.725567-5.725567c0-3.184283-2.559713-5.727615-5.725567-5.727615a5.71328 5.71328 0 0 0-5.725567 5.727615 5.708161 5.708161 0 0 0 5.725567 5.725567" fill="#404041" /><path d="M112.638648 551.670437a3.005103 3.005103 0 0 1-3.006127-3.006127v-12.507784a3.005103 3.005103 0 1 1 6.012255 0v12.507784a3.006127 3.006127 0 0 1-3.006128 3.006127z" fill="#404041" /><path d="M118.89254 545.416545H106.384757a3.005103 3.005103 0 1 1 0-6.012254h12.507783a3.005103 3.005103 0 1 1 0 6.012254z" fill="#404041" /><path d="M89.168125 440.852257a3.005103 3.005103 0 0 1-3.006127-3.006128v-12.507783a3.005103 3.005103 0 1 1 6.012254 0v12.507783a3.005103 3.005103 0 0 1-3.006127 3.006128z" fill="#404041" /><path d="M95.422017 434.598365H82.915257a3.005103 3.005103 0 1 1 0-6.012255h12.507784a3.005103 3.005103 0 1 1-0.001024 6.012255z" fill="#404041" /><path d="M166.900475 476.513159a3.005103 3.005103 0 0 1-3.006127-3.006128v-12.507783a3.005103 3.005103 0 1 1 6.012254 0v12.507783a3.006127 3.006127 0 0 1-3.006127 3.006128z" fill="#404041" /><path d="M173.154367 470.259267h-12.507783a3.005103 3.005103 0 1 1 0-6.012255h12.507783a3.005103 3.005103 0 1 1 0 6.012255z" fill="#404041" /><path d="M221.007695 256.287712a3.005103 3.005103 0 0 1-3.006127-3.006128v-12.507783a3.005103 3.005103 0 1 1 6.012254 0v12.507783a3.007151 3.007151 0 0 1-3.006127 3.006128z" fill="#404041" /><path d="M227.261587 250.03382h-12.507783a3.005103 3.005103 0 1 1 0-6.012254h12.507783a3.005103 3.005103 0 1 1 0 6.012254z" fill="#404041" /><path d="M274.503656 818.999728a3.005103 3.005103 0 0 1-3.006128-3.006127V803.486841a3.005103 3.005103 0 1 1 6.012255 0v12.507784a3.005103 3.005103 0 0 1-3.006127 3.005103z" fill="#404041" /><path d="M280.757547 812.745836h-12.507783a3.005103 3.005103 0 1 1 0-6.012254h12.507783a3.005103 3.005103 0 1 1 0 6.012254z" fill="#404041" /><path d="M557.693954 431.80623a3.005103 3.005103 0 0 1-3.006127-3.006128v-12.507783a3.005103 3.005103 0 1 1 6.012255 0v12.507783a3.005103 3.005103 0 0 1-3.006128 3.006128z" fill="#404041" /><path d="M563.947846 425.552338h-12.507783a3.005103 3.005103 0 1 1 0-6.012254h12.507783a3.005103 3.005103 0 1 1 0 6.012254z" fill="#404041" /><path d="M390.854912 482.766026a3.005103 3.005103 0 0 1-3.006127-3.006127V467.25314a3.005103 3.005103 0 1 1 6.012255 0v12.507783a3.005103 3.005103 0 0 1-3.006128 3.005103z" fill="#404041" /><path d="M397.108804 476.513159h-12.507783a3.005103 3.005103 0 1 1 0-6.012255h12.507783a3.005103 3.005103 0 1 1 0 6.012255z" fill="#404041" /><path d="M537.007375 589.956581a3.005103 3.005103 0 0 1-3.006127-3.006127v-12.507784a3.005103 3.005103 0 1 1 6.012254 0v12.507784a3.006127 3.006127 0 0 1-3.006127 3.006127z" fill="#404041" /><path d="M543.261267 583.702689h-12.507783a3.005103 3.005103 0 1 1 0-6.012254h12.507783a3.005103 3.005103 0 1 1 0 6.012254z" fill="#404041" /><path d="M490.295679 739.600493a3.005103 3.005103 0 0 1-3.006127-3.006128v-12.507783a3.005103 3.005103 0 1 1 6.012254 0v12.507783a3.006127 3.006127 0 0 1-3.006127 3.006128z" fill="#404041" /><path d="M496.54957 733.346601h-12.507783a3.005103 3.005103 0 1 1 0-6.012254h12.507783a3.005103 3.005103 0 1 1 0 6.012254z" fill="#404041" /><path d="M274.503656 752.102133a5.715328 5.715328 0 0 1-5.725567-5.727615c0-3.182236 2.559713-5.725567 5.725567-5.725567a5.71328 5.71328 0 0 1 5.725566 5.725567 5.709185 5.709185 0 0 1-5.725566 5.727615M264.876062 315.037228a5.715328 5.715328 0 0 1-5.725567-5.727615c0-3.182236 2.559713-5.725567 5.725567-5.725566a5.71328 5.71328 0 0 1 5.725567 5.725566 5.709185 5.709185 0 0 1-5.725567 5.727615M816.846497 665.199866c-6.315325 0-11.451133-5.137857-11.451133-11.453182s5.135809-11.453181 11.451133-11.453181c6.317372 0 11.453181 5.137857 11.453181 11.453181s-5.135809 11.453181-11.453181 11.453182m0-34.356472c-12.648055 0-22.904315 10.255235-22.904315 22.904314 0 12.648055 10.255235 22.904315 22.904315 22.904315 12.648055 0 22.904315-10.255235 22.904315-22.904315 0-12.649079-10.256259-22.904315-22.904315-22.904314M794.596445 400.611516l-12.168877-12.16683c-2.185995-2.1819-2.214664-5.840242 0.023549-8.073336a5.687683 5.687683 0 0 1 8.073336-0.023549l12.16683 12.166829 12.168877-12.166829c2.1819-2.185995 5.840242-2.216712 8.073335 0.023549a5.687683 5.687683 0 0 1 0.021502 8.073336l-12.166829 12.16683 12.166829 12.166829c2.189067 2.1819 2.216712 5.840242-0.021502 8.073336a5.684611 5.684611 0 0 1-8.073335 0.023549l-12.168877-12.166829-12.16683 12.166829c-2.1819 2.189067-5.836146 2.216712-8.073336-0.023549a5.687683 5.687683 0 0 1-0.023549-8.073336l12.168877-12.166829zM815.877902 548.14008a5.715328 5.715328 0 0 1-5.725567-5.727614c0-3.182236 2.559713-5.725567 5.725567-5.725567a5.71328 5.71328 0 0 1 5.725566 5.725567 5.709185 5.709185 0 0 1-5.725566 5.727614M646.521126 787.786584a5.715328 5.715328 0 0 1-5.725567-5.727615c0-3.182236 2.559713-5.725567 5.725567-5.725566a5.71328 5.71328 0 0 1 5.725566 5.725566 5.709185 5.709185 0 0 1-5.725566 5.727615M876.239013 741.795703a5.715328 5.715328 0 0 1-5.725567-5.727615c0-3.182236 2.559713-5.725567 5.725567-5.725566a5.71328 5.71328 0 0 1 5.725567 5.725566 5.710208 5.710208 0 0 1-5.725567 5.727615M912.508103 323.183259a5.715328 5.715328 0 0 1-5.725567-5.727614c0-3.182236 2.559713-5.725567 5.725567-5.725567a5.71328 5.71328 0 0 1 5.725567 5.725567 5.709185 5.709185 0 0 1-5.725567 5.727614M936.224359 691.288464a5.71328 5.71328 0 0 1-5.725567-5.725567c0-3.184283 2.559713-5.727615 5.725567-5.727615a5.71328 5.71328 0 0 1 5.725567 5.727615 5.709185 5.709185 0 0 1-5.725567 5.725567" fill="#404041" /><path d="M924.242853 551.670437a3.007151 3.007151 0 0 1-3.006128-3.006127v-12.507784a3.007151 3.007151 0 0 1 3.006128-3.006127 3.007151 3.007151 0 0 1 3.006127 3.006127v12.507784a3.007151 3.007151 0 0 1-3.006127 3.006127z" fill="#404041" /><path d="M930.499816 545.416545h-12.507783c-1.65767 0-3.006127-1.345385-3.006127-3.006127s1.348457-3.006127 3.006127-3.006127h12.507783c1.65767 0 3.006127 1.345385 3.006127 3.006127s-1.348457 3.006127-3.006127 3.006127z" fill="#404041" /><path d="M947.713376 440.852257a3.007151 3.007151 0 0 1-3.006127-3.006128v-12.507783a3.007151 3.007151 0 0 1 3.006127-3.006127 3.007151 3.007151 0 0 1 3.006127 3.006127v12.507783a3.007151 3.007151 0 0 1-3.006127 3.006128z" fill="#404041" /><path d="M953.969315 434.598365h-12.507783c-1.65767 0-3.006127-1.345385-3.006127-3.006127s1.348457-3.006127 3.006127-3.006128h12.507783c1.65767 0 3.006127 1.345385 3.006128 3.006128s-1.348457 3.006127-3.006128 3.006127z" fill="#404041" /><path d="M869.986146 476.513159a3.007151 3.007151 0 0 1-3.006128-3.006128v-12.507783a3.007151 3.007151 0 0 1 3.006128-3.006127 3.007151 3.007151 0 0 1 3.006127 3.006127v12.507783a3.008175 3.008175 0 0 1-3.006127 3.006128z" fill="#404041" /><path d="M876.237989 470.259267h-12.507783c-1.65767 0-3.006127-1.345385-3.006127-3.006127s1.348457-3.006127 3.006127-3.006128h12.507783c1.65767 0 3.006127 1.345385 3.006128 3.006128s-1.348457 3.006127-3.006128 3.006127z" fill="#404041" /><path d="M815.878926 256.287712a3.007151 3.007151 0 0 1-3.006128-3.006128v-12.507783a3.007151 3.007151 0 0 1 3.006128-3.006127 3.007151 3.007151 0 0 1 3.006127 3.006127v12.507783a3.008175 3.008175 0 0 1-3.006127 3.006128z" fill="#404041" /><path d="M822.130769 250.03382h-12.507783c-1.65767 0-3.006127-1.345385-3.006127-3.006127s1.348457-3.006127 3.006127-3.006127h12.507783c1.65767 0 3.006127 1.345385 3.006128 3.006127s-1.348457 3.006127-3.006128 3.006127z" fill="#404041" /><path d="M762.382965 818.999728a3.007151 3.007151 0 0 1-3.006127-3.006127V803.486841a3.007151 3.007151 0 0 1 3.006127-3.006127 3.007151 3.007151 0 0 1 3.006127 3.006127v12.507784a3.007151 3.007151 0 0 1-3.006127 3.005103z" fill="#404041" /><path d="M768.633785 812.745836h-12.507783c-1.65767 0-3.006127-1.345385-3.006127-3.006127s1.348457-3.006127 3.006127-3.006127h12.507783a3.007151 3.007151 0 0 1 0 6.012254z" fill="#404041" /><path d="M491.720927 812.745836a3.005103 3.005103 0 0 1-3.006127-3.006127v-12.507783a3.005103 3.005103 0 1 1 6.012255 0v12.507783a3.005103 3.005103 0 0 1-3.006128 3.006127z" fill="#404041" /><path d="M497.974819 806.492969h-12.507783a3.005103 3.005103 0 1 1 0-6.012255h12.507783a3.005103 3.005103 0 1 1 0 6.012255z" fill="#404041" /><path d="M762.380917 752.102133a5.715328 5.715328 0 0 0 5.725567-5.727615c0-3.182236-2.559713-5.725567-5.725567-5.725567a5.71328 5.71328 0 0 0-5.725566 5.725567 5.710208 5.710208 0 0 0 5.725566 5.727615M637.574416 485.487513a5.715328 5.715328 0 0 0 5.725566-5.727614c0-3.182236-2.559713-5.725567-5.725566-5.725567a5.71328 5.71328 0 0 0-5.725567 5.725567 5.709185 5.709185 0 0 0 5.725567 5.727614M430.647192 399.377734a5.715328 5.715328 0 0 0 5.725566-5.727615c0-3.182236-2.559713-5.725567-5.725566-5.725567a5.71328 5.71328 0 0 0-5.725567 5.725567 5.709185 5.709185 0 0 0 5.725567 5.727615M471.535028 553.866671a5.715328 5.715328 0 0 0 5.725567-5.727615c0-3.182236-2.559713-5.725567-5.725567-5.725566a5.71328 5.71328 0 0 0-5.725567 5.725566 5.709185 5.709185 0 0 0 5.725567 5.727615M730.979378 234.692946a5.715328 5.715328 0 0 0 5.725567-5.727614c0-3.182236-2.559713-5.725567-5.725567-5.725567a5.71328 5.71328 0 0 0-5.725566 5.725567 5.710208 5.710208 0 0 0 5.725566 5.727614M600.451405 252.755307a5.715328 5.715328 0 0 0 5.725567-5.727614c0-3.182236-2.559713-5.725567-5.725567-5.725567a5.71328 5.71328 0 0 0-5.725566 5.725567 5.709185 5.709185 0 0 0 5.725566 5.727614M370.388468 204.633721a5.715328 5.715328 0 0 0 5.725567-5.727614c0-3.182236-2.559713-5.725567-5.725567-5.725567a5.71328 5.71328 0 0 0-5.725566 5.725567 5.710208 5.710208 0 0 0 5.725566 5.727614M349.919977 289.380709a5.715328 5.715328 0 0 0 5.725567-5.727614c0-3.182236-2.559713-5.725567-5.725567-5.725567a5.71328 5.71328 0 0 0-5.725567 5.725567 5.709185 5.709185 0 0 0 5.725567 5.727614M89.169149 240.419537a5.715328 5.715328 0 0 0 5.725567-5.727614c0-3.182236-2.559713-5.725567-5.725567-5.725567a5.71328 5.71328 0 0 0-5.725567 5.725567 5.709185 5.709185 0 0 0 5.725567 5.727614M936.223335 223.239765a5.715328 5.715328 0 0 0 5.725567-5.727614c0-3.182236-2.559713-5.725567-5.725567-5.725567a5.71328 5.71328 0 0 0-5.725567 5.725567 5.709185 5.709185 0 0 0 5.725567 5.727614M941.461532 827.44883a5.715328 5.715328 0 0 0 5.725567-5.727615c0-3.182236-2.559713-5.725567-5.725567-5.725567a5.71328 5.71328 0 0 0-5.725566 5.725567 5.709185 5.709185 0 0 0 5.725566 5.727615M71.136481 827.44883a5.715328 5.715328 0 0 0 5.725566-5.727615c0-3.182236-2.559713-5.725567-5.725566-5.725567a5.71328 5.71328 0 0 0-5.725567 5.725567 5.709185 5.709185 0 0 0 5.725567 5.727615M772.008511 315.037228a5.715328 5.715328 0 0 0 5.725567-5.727615c0-3.182236-2.559713-5.725567-5.725567-5.725566a5.71328 5.71328 0 0 0-5.725567 5.725566 5.709185 5.709185 0 0 0 5.725567 5.727615" fill="#404041" /><path d="M746.33561 580.552194h-7.678116v-61.330731c0-126.876798-103.280337-230.156111-230.157134-230.15611s-230.156111 103.279313-230.156111 230.15611v61.330731h-7.678116v107.400451h40.357464c6.835458 26.404979 30.806662 46.06972 59.364871 46.06972 33.80255 0 61.331755-27.529205 61.331755-61.331754v-76.687987c0-33.80255-27.529205-61.330731-61.331755-61.330731-18.353144 0-34.739405 8.145008-46.068696 20.881117v-36.238373c0-101.500824 82.58659-184.087414 184.087414-184.087414s184.088438 82.585566 184.088438 184.087414v36.238373c-11.236118-12.828259-27.716576-20.881117-46.068696-20.881117-33.80255 0-61.331755 27.528181-61.331755 61.330731v76.687987c0 33.80255 27.529205 61.331755 61.331755 61.331754 28.559233 0 52.528389-19.570544 59.364871-46.06972h40.543811V580.552194z" fill="#F26E3F" /><path d="M286.022365 596.002624h23.034349v76.687987h-23.034349z" fill="#33B88C" /><path d="M309.05569 678.100821h-23.033325a5.412258 5.412258 0 0 1-5.41021-5.41021v-76.689011a5.412258 5.412258 0 0 1 5.41021-5.41021h23.033325a5.412258 5.412258 0 0 1 5.41021 5.41021v76.689011a5.41021 5.41021 0 0 1-5.41021 5.41021z m-17.622091-10.821444h12.211881v-65.867567h-12.211881v65.867567z" fill="#404041" /><path d="M370.388468 549.933927c25.37495 0 46.068696 20.692722 46.068697 46.068697v76.687987c0 25.375974-20.693746 46.068696-46.068697 46.068696-25.375974 0-46.068696-20.692722-46.068696-46.068696v-76.687987c0.094197-25.468124 20.693746-46.068696 46.068696-46.068697z" fill="#F2C928" /><path d="M370.388468 723.568496c-28.053434 0-50.877886-22.824452-50.877885-50.877885v-76.689011c0.103412-28.063673 22.927864-50.877886 50.877885-50.877886 28.053434 0 50.877886 22.824452 50.877886 50.877886v76.689011c0 28.053434-22.823428 50.877886-50.877886 50.877885z m0-168.826403c-22.666773 0-41.174524 18.516966-41.258483 41.277937v76.670581c0 22.751756 18.507751 41.258483 41.258483 41.258483s41.258483-18.507751 41.258484-41.258483v-76.689011c0.001024-22.751756-18.506727-41.259507-41.258484-41.259507z" fill="#404041" /><path d="M692.589822 672.690611c0 25.375974-20.693746 46.068696-46.06972 46.068696-25.373926 0-46.068696-20.692722-46.068697-46.068696v-76.687987c0-25.375974 20.693746-46.068696 46.068697-46.068697 25.375974 0 46.06972 20.692722 46.06972 46.068697v76.687987z" fill="#F2C928" /><path d="M646.518054 723.568496c-28.053434 0-50.875838-22.824452-50.875838-50.877885v-76.689011c0-28.053434 22.82138-50.877886 50.875838-50.877886s50.879933 22.824452 50.879933 50.877886v76.689011c0 28.053434-22.826499 50.877886-50.879933 50.877885z m0-168.826403c-22.751756 0-41.256435 18.507751-41.256435 41.258483v76.689011c0 22.751756 18.505703 41.258483 41.256435 41.258483s41.261555-18.507751 41.261555-41.258483v-76.689011c-0.001024-22.750732-18.510823-41.258483-41.261555-41.258483z" fill="#404041" /><path d="M707.946054 596.002624h23.034348v76.687987h-23.034348z" fill="#33B88C" /><path d="M730.980402 678.100821h-23.033324a5.412258 5.412258 0 0 1-5.41021-5.41021v-76.689011a5.412258 5.412258 0 0 1 5.41021-5.41021h23.033324a5.412258 5.412258 0 0 1 5.41021 5.41021v76.689011a5.412258 5.412258 0 0 1-5.41021 5.41021z m-17.623114-10.821444h12.21188v-65.867567h-12.21188v65.867567zM479.253076 342.947318a5.41021 5.41021 0 0 1-5.344682-4.621818 5.409186 5.409186 0 0 1 4.562433-6.141265l5.664134-0.83549a5.409186 5.409186 0 1 1 1.578831 10.703697l-5.664134 0.836514a5.3969 5.3969 0 0 1-0.796582 0.058362zM537.014542 342.947318a5.600653 5.600653 0 0 1-0.898971-0.072696l-4.16107-0.695218a5.416353 5.416353 0 0 1-4.44571-6.230342c0.497608-2.942646 3.273361-4.919769 6.230342-4.44571l4.16107 0.695218a5.416353 5.416353 0 0 1 4.44571 6.230342 5.416353 5.416353 0 0 1-5.331371 4.518406z" fill="#404041" /><path d="M508.501384 335.375686m-7.815317 0a7.815317 7.815317 0 1 0 15.630634 0 7.815317 7.815317 0 1 0-15.630634 0Z" fill="#404041" /><path d="M746.33561 575.141984h-2.266882v-55.920521c0-22.689299-3.23343-44.634233-9.248756-65.411938h-11.292431c6.312253 20.707057 9.719743 42.668373 9.719743 65.411938v61.330731a5.41021 5.41021 0 0 0 5.41021 5.41021h2.266882v96.579007h-35.132577a5.41021 5.41021 0 0 0-5.239221 4.059706c-6.380853 24.736046-28.639096 42.010015-54.12565 42.010015-30.834307 0-55.921545-25.08519-55.921545-55.921545v-76.687987c0-30.834307 25.087238-55.919497 55.921545-55.919497a55.828371 55.828371 0 0 1 41.998752 19.035052 5.408162 5.408162 0 0 0 9.480155-3.564145v-36.238373c0-95.51519-71.038188-174.737293-163.052715-187.643368v10.927928c86.027869 12.819044 152.23127 87.177692 152.231271 176.716464v23.774617a66.665174 66.665174 0 0 0-40.657463-13.828595c-36.80151 0-66.742989 29.939431-66.742989 66.740941v76.687987c0 36.80151 29.940455 66.742989 66.742989 66.742988 29.008719 0 54.510631-18.741197 63.420481-46.06972h36.488201a5.41021 5.41021 0 0 0 5.41021-5.41021V580.552194a5.409186 5.409186 0 0 0-5.41021-5.41021z" fill="#404041" /><path d="M318.908538 519.314637v36.238373a5.409186 5.409186 0 0 0 9.453533 3.595885c10.779465-12.117683 26.097813-19.066793 42.026397-19.066792 30.834307 0 55.920521 25.08519 55.920521 55.919497v76.687987c0 30.83533-25.086214 55.921545-55.920521 55.921545-25.466076 0-47.723295-17.277041-54.126673-42.015135a5.411234 5.411234 0 0 0-5.238198-4.054586h-34.94623V585.962404h2.266882a5.41021 5.41021 0 0 0 5.410211-5.41021v-61.330731c0-22.744589 3.408514-44.704881 9.719743-65.411938h-11.292431c-6.014302 20.777705-9.248756 42.722639-9.248756 65.411938v55.920521h-2.266883a5.41021 5.41021 0 0 0-5.41021 5.41021v107.400451a5.41021 5.41021 0 0 0 5.41021 5.41021h36.304926c8.930328 27.329547 34.431216 46.06972 63.417409 46.069721 36.80151 0 66.741965-29.940455 66.741965-66.742989v-76.687987c0-36.80151-29.940455-66.740941-66.741965-66.740941-14.727567 0-29.006671 4.963796-40.658486 13.902315v-23.849361c0-89.533652 66.197258-163.890252 152.21796-176.714416v-10.927928c-92.007359 12.913242-163.039404 92.133297-163.039404 187.643368z" fill="#404041" /><path d="M508.501384 283.654119c-98.697426 0-183.399363 61.020494-218.396788 147.310477h11.71632c34.368759-80.177388 114.069016-136.489033 206.679444-136.489033s172.310685 56.310621 206.679444 136.489033h11.71632c-34.9964-86.289984-119.697314-147.310477-218.39474-147.310477z" fill="#404041" /><path d="M287.412802 460.273313a5.412258 5.412258 0 0 1-5.147072-7.080167l1.535828-4.74366a5.406115 5.406115 0 0 1 6.814981-3.480187 5.412258 5.412258 0 0 1 3.480186 6.814981l-1.535828 4.743661a5.416353 5.416353 0 0 1-5.148095 3.745372zM294.908666 438.23111a5.394852 5.394852 0 0 1-2.26381-0.50068 5.411234 5.411234 0 0 1-2.646744-7.179484l2.146064-4.654582a5.41021 5.41021 0 1 1 9.826227 4.53274l-2.146063 4.654583a5.411234 5.411234 0 0 1-4.915674 3.147423zM729.350377 460.273313a5.412258 5.412258 0 0 1-5.148096-3.750492l-1.530708-4.74366a5.411234 5.411234 0 1 1 10.295167-3.32558l1.530708 4.743661a5.411234 5.411234 0 0 1-5.147071 7.076071zM721.858608 438.23111c-2.047771 0-4.006463-1.167229-4.917721-3.146399l-2.146064-4.654583a5.408162 5.408162 0 0 1 2.648791-7.179484c2.719439-1.24914 5.932392-0.061433 7.176413 2.646743l2.146063 4.654583a5.408162 5.408162 0 0 1-2.648791 7.179484 5.382565 5.382565 0 0 1-2.258691 0.499656zM475.937735 643.183259h-18.437103c-2.986673 0-5.41021-2.423537-5.41021-5.41021s2.423537-5.41021 5.41021-5.41021h18.437103c2.986673 0 5.41021 2.423537 5.41021 5.41021s-2.423537 5.41021-5.41021 5.41021zM520.725551 643.183259h-18.437103c-2.986673 0-5.41021-2.423537-5.41021-5.41021s2.423537-5.41021 5.41021-5.41021h18.437103a5.411234 5.411234 0 0 1 0 10.82042zM562.104852 643.183259h-18.437103c-2.986673 0-5.41021-2.423537-5.41021-5.41021s2.423537-5.41021 5.41021-5.41021h18.437103c2.986673 0 5.41021 2.423537 5.41021 5.41021s-2.423537 5.41021-5.41021 5.41021zM411.321356 342.947318h-40.932888a5.412258 5.412258 0 0 1-5.41021-5.41021 5.412258 5.412258 0 0 1 5.41021-5.41021h40.932888a5.412258 5.412258 0 0 1 5.41021 5.41021 5.412258 5.412258 0 0 1-5.41021 5.41021zM345.228534 389.081543h-22.795782c-2.986673 0-5.41021-2.423537-5.410211-5.41021s2.423537-5.41021 5.410211-5.41021h22.795782c2.986673 0 5.41021 2.423537 5.41021 5.41021s-2.423537 5.41021-5.41021 5.41021zM304.729774 482.466028h-19.637096a5.412258 5.412258 0 0 1-5.41021-5.41021 5.412258 5.412258 0 0 1 5.41021-5.41021h19.637096a5.41021 5.41021 0 0 1 0 10.82042zM288.94863 510.522533h-8.998928a5.412258 5.412258 0 0 1-5.41021-5.41021 5.412258 5.412258 0 0 1 5.41021-5.41021h8.998928a5.41021 5.41021 0 0 1 0 10.82042zM294.911738 544.188907h-14.962036c-2.986673 0-5.41021-2.423537-5.41021-5.41021s2.423537-5.41021 5.41021-5.41021h14.962036c2.986673 0 5.41021 2.423537 5.41021 5.41021s-2.423537 5.41021-5.41021 5.41021zM365.579279 576.644024H334.260675c-2.986673 0-5.41021-2.423537-5.41021-5.41021s2.423537-5.41021 5.41021-5.41021h31.318604c2.986673 0 5.41021 2.423537 5.41021 5.41021s-2.423537 5.41021-5.41021 5.41021zM338.464748 601.813173h-12.141232c-2.986673 0-5.41021-2.423537-5.41021-5.41021s2.423537-5.41021 5.41021-5.41021h12.141232c2.986673 0 5.41021 2.423537 5.41021 5.41021s-2.423537 5.41021-5.41021 5.41021zM343.6753 684.866655h-17.352808c-2.986673 0-5.41021-2.423537-5.41021-5.41021s2.423537-5.41021 5.41021-5.41021h17.352808a5.411234 5.411234 0 0 1 0 10.82042zM358.503208 706.509543h-20.03846c-2.986673 0-5.41021-2.423537-5.41021-5.41021s2.423537-5.41021 5.41021-5.41021h20.03846a5.411234 5.411234 0 0 1 0 10.82042zM293.176252 617.533908h-7.152863c-2.986673 0-5.41021-2.423537-5.41021-5.41021s2.423537-5.41021 5.41021-5.41021h7.152863c2.986673 0 5.41021 2.423537 5.41021 5.41021s-2.423537 5.41021-5.41021 5.41021zM294.911738 649.595853h-8.888349c-2.986673 0-5.41021-2.423537-5.41021-5.41021s2.423537-5.41021 5.41021-5.41021h8.888349c2.986673 0 5.41021 2.423537 5.41021 5.41021s-2.423537 5.41021-5.41021 5.41021z" fill="#404041" /><path d="M570.723919 290.886845c0 7.968899-6.460716 14.428592-14.428592 14.428592h-82.362359c-7.968899 0-14.428592-6.459693-14.428592-14.428592V289.383781c0-7.968899 6.459693-14.428592 14.428592-14.428592h82.362359c7.967876 0 14.428592 6.459693 14.428592 14.428592v1.503064z" fill="#33B88C" /><path d="M556.294303 310.725647h-82.362359c-10.939191 0-19.838802-8.900635-19.838802-19.838802V289.383781c0-10.939191 8.900635-19.838802 19.838802-19.838802h82.362359c10.939191 0 19.838802 8.900635 19.838802 19.838802v1.503064c0.001024 10.938167-8.899611 19.838802-19.838802 19.838802z m-82.362359-30.360248c-4.971987 0-9.017358 4.046395-9.017358 9.017358v1.503064c0 4.971987 4.046395 9.017358 9.017358 9.017358h82.362359c4.971987 0 9.017358-4.046395 9.017358-9.017358V289.383781c0-4.971987-4.046395-9.017358-9.017358-9.017358h-82.362359z" fill="#404041" /><path d="M459.504376 289.384805h18.284544" fill="#33B88C" /><path d="M477.787896 294.793991h-18.284544a5.412258 5.412258 0 0 1-5.41021-5.41021 5.412258 5.412258 0 0 1 5.41021-5.41021h18.284544a5.412258 5.412258 0 0 1 5.41021 5.41021 5.412258 5.412258 0 0 1-5.41021 5.41021z" fill="#404041" /></svg>