<?xml version="1.0" encoding="utf-8"?>
<!-- Uploaded to: SVG Repo, www.svgrepo.com, Generator: SVG Repo Mixer Tools -->
<svg width="800px" height="800px" viewBox="0 0 1024 1024" class="icon"  version="1.1" xmlns="http://www.w3.org/2000/svg"><path d="M152.641848 244.56832a2.752204 2.752204 0 0 0-2.755275 2.757324l-0.00512 12.11973a2.766538 2.766538 0 0 0 2.760395 2.757323 2.760395 2.760395 0 0 0 2.753228-2.757323v-12.11973a2.756299 2.756299 0 0 0-2.753228-2.757324zM152.638776 286.442158a2.757323 2.757323 0 0 0-2.757323 2.752204l0.00512 12.119731a2.752204 2.752204 0 0 0 2.755275 2.753227 2.749132 2.749132 0 0 0 2.753228-2.753227v-12.119731a2.754252 2.754252 0 0 0-2.7563-2.752204zM140.173997 265.748412a2.75118 2.75118 0 0 0 3.895883 0 2.752204 2.752204 0 0 0 0-3.895883l-8.571968-8.568897a2.756299 2.756299 0 0 0-3.895883 0 2.756299 2.756299 0 0 0 0 3.895884l8.571968 8.568896zM165.101509 282.892348c-1.07508-1.080199-2.815685-1.080199-3.890765 0s-1.07508 2.815685 0 3.895884l8.571968 8.568896a2.761419 2.761419 0 0 0 3.892812 0 2.75118 2.75118 0 0 0 0-3.895884l-8.574015-8.568896zM140.519046 274.318332a2.754252 2.754252 0 0 0-2.755276-2.752203h-12.117682a2.754252 2.754252 0 1 0 0 5.509527h12.117682a2.754252 2.754252 0 0 0 2.755276-2.757324zM179.633513 271.565105h-12.119731a2.754252 2.754252 0 0 0-2.753227 2.757323 2.75118 2.75118 0 0 0 2.755275 2.753228h12.117683a2.755275 2.755275 0 0 0 2.755275-2.757324 2.748108 2.748108 0 0 0-2.755275-2.753227zM140.173997 282.892348l-8.571968 8.568896a2.756299 2.756299 0 0 0 0 3.895884 2.756299 2.756299 0 0 0 3.895883 0l8.571968-8.568896a2.752204 2.752204 0 0 0 0-3.895884 2.747084 2.747084 0 0 0-3.895883 0zM165.106628 265.748412l8.568896-8.568896a2.756299 2.756299 0 0 0 0-3.895884 2.752204 2.752204 0 0 0-3.892812 0l-8.571968 8.568897a2.756299 2.756299 0 0 0 0 3.895883 2.747084 2.747084 0 0 0 3.895884 0z" fill="#FED62C" /><path d="M842.368887 876.734574h45.132865" fill="#FEDEBB" /><path d="M887.501752 887.939975h-45.132865c-6.188363 0-11.205401-5.017038-11.205401-11.205401 0-6.188363 5.017038-11.205401 11.205401-11.205401h45.132865c6.188363 0 11.205401 5.017038 11.205401 11.205401 0 6.189387-5.017038 11.205401-11.205401 11.205401z" fill="" /><path d="M770.778825 876.734574h26.768458" fill="#FEDEBB" /><path d="M797.547283 887.939975h-26.768458c-6.188363 0-11.205401-5.017038-11.205401-11.205401 0-6.188363 5.017038-11.205401 11.205401-11.205401h26.768458c6.188363 0 11.205401 5.017038 11.205401 11.205401 0 6.189387-5.016014 11.205401-11.205401 11.205401z" fill="" /><path d="M187.482618 876.734574h535.985538" fill="#FEDEBB" /><path d="M723.468156 887.939975H187.482618c-6.188363 0-11.205401-5.017038-11.205401-11.205401 0-6.188363 5.017038-11.205401 11.205401-11.205401h535.985538c6.188363 0 11.205401 5.017038 11.205401 11.205401 0 6.189387-5.017038 11.205401-11.205401 11.205401z" fill="" /><path d="M85.701249 876.734574h40.463948" fill="#FEDEBB" /><path d="M126.165197 887.939975h-40.463948c-6.188363 0-11.205401-5.017038-11.205401-11.205401 0-6.188363 5.017038-11.205401 11.205401-11.205401h40.463948c6.188363 0 11.205401 5.017038 11.205401 11.205401 0 6.189387-5.017038 11.205401-11.205401 11.205401z" fill="" /><path d="M73.003024 479.257171m-8.870943 0a8.870942 8.870942 0 1 0 17.741885 0 8.870942 8.870942 0 1 0-17.741885 0Z" fill="#FD5C1E" /><path d="M119.462844 593.737789a4.044347 4.044347 0 1 1-4.041275-4.046394 4.044347 4.044347 0 0 1 4.041275 4.046394z" fill="#FA9F76" /><path d="M268.19345 220.134321c0 6.006111-4.870622 10.883901-10.881853 10.883901s-10.879805-4.87779-10.879805-10.883901 4.868575-10.883901 10.879805-10.883901c6.011231 0 10.881853 4.87779 10.881853 10.883901z" fill="#FD5C1E" /><path d="M802.663638 496.318172a7.472315 7.472315 0 0 1-7.470268 7.470268 7.469243 7.469243 0 0 1-7.470267-7.470268 7.469243 7.469243 0 0 1 7.470267-7.470267 7.472315 7.472315 0 0 1 7.470268 7.470267z" fill="#FC7C21" /><path d="M602.816581 290.366711c0 6.731022-5.466524 12.197546-12.197546 12.197546-6.740237 0-12.197546-5.466524-12.197546-12.197546 0-6.735118 5.456285-12.197546 12.197546-12.197546 6.731022 0.001024 12.197546 5.462428 12.197546 12.197546z" fill="#FDD72C" /><path d="M110.096341 392.416337c-10.563425 0-19.156894-8.591422-19.156894-19.151775 0-10.565473 8.59347-19.162014 19.156894-19.162013 10.561377 0 19.151775 8.596541 19.151775 19.162013 0 10.560353-8.591422 19.151775-19.151775 19.151775z m0-30.843521c-6.444334 0-11.686627 5.245365-11.686627 11.691746 0 6.441263 5.242293 11.681508 11.686627 11.681508 6.441263 0 11.681508-5.240245 11.681508-11.681508 0-6.446382-5.240245-11.691747-11.681508-11.691746z" fill="#2BA9FC" /><path d="M906.464108 507.187739c-11.475707 0-20.812517-9.337834-20.812517-20.815589 0-11.475707 9.337834-20.810469 20.812517-20.810469s20.810469 9.335786 20.810469 20.810469c0 11.477754-9.335786 20.815589-20.810469 20.815589z m0-34.155791c-7.358664 0-13.343274 5.98461-13.343274 13.340202 0 7.358664 5.98461 13.345321 13.343274 13.345322 7.355592 0 13.340202-5.986657 13.340202-13.345322 0-7.355592-5.98461-13.340202-13.340202-13.340202z" fill="#FDD72C" /><path d="M774.334779 589.900267a4.958677 4.958677 0 0 1-4.962773-4.960724v-4.965844a5.415329 5.415329 0 0 0-10.828611 0v4.965844a4.960724 4.960724 0 0 1-4.965844 4.960724h-4.965844a5.416353 5.416353 0 0 0-5.413281 5.417377 5.413282 5.413282 0 0 0 5.413281 5.413282h4.965844a4.963796 4.963796 0 0 1 4.965844 4.960725v4.965843a5.419425 5.419425 0 0 0 5.41533 5.418401 5.416353 5.416353 0 0 0 5.413281-5.418401v-4.965843a4.961748 4.961748 0 0 1 4.962773-4.960725h4.960724a5.416353 5.416353 0 1 0 0-10.830659h-4.960724z" fill="#2BA9FC" /><path d="M723.326859 293.4312a5.137857 5.137857 0 0 1-5.135808-5.135809v-5.140928a5.604748 5.604748 0 0 0-11.210521 0v5.140928a5.13888 5.13888 0 0 1-5.140928 5.135809h-5.135809a5.606796 5.606796 0 1 0 0 11.21052h5.135809a5.141952 5.141952 0 0 1 5.140928 5.140928v5.135809a5.604748 5.604748 0 1 0 11.210521 0v-5.135809a5.141952 5.141952 0 0 1 5.135808-5.140928h5.140929a5.604748 5.604748 0 1 0 0-11.21052h-5.140929z" fill="#FA9F76" /><path d="M523.333387 217.332971a4.806118 4.806118 0 0 1-4.805094-4.805094v-4.805094a5.242293 5.242293 0 1 0-10.48561 0v4.805094a4.810213 4.810213 0 0 1-4.810213 4.805094h-4.805094a5.246388 5.246388 0 0 0-5.247412 5.247412 5.242293 5.242293 0 0 0 5.247412 5.243317h4.805094a4.810213 4.810213 0 0 1 4.810213 4.805094v4.810213a5.242293 5.242293 0 1 0 10.48561 0v-4.810213c0-2.650839 2.150159-4.805094 4.805094-4.805094h4.810213a5.245365 5.245365 0 0 0 0-10.490729h-4.810213z" fill="#EC5D73" /><path d="M432.069368 521.481178m-224.105972 0a224.105972 224.105972 0 1 0 448.211944 0 224.105972 224.105972 0 1 0-448.211944 0Z" fill="#FDD72C" /><path d="M453.246388 299.03902a224.978322 224.978322 0 0 0-41.521621 3.856976c98.136337 23.845265 171.005231 112.286432 171.005231 217.759931 0 109.577231-78.655895 200.776745-182.580255 220.248996a224.512455 224.512455 0 0 0 53.096645 6.347065c123.769306 0 224.105972-100.33769 224.105973-224.105972 0.001024-123.77033-100.336666-224.106996-224.105973-224.106996z" fill="#FC7C21" /><path d="M607.218264 412.331931c0 18.111508-14.67842 32.788904-32.784809 32.788903-18.111508 0-32.788904-14.67842-32.788903-32.788903 0-18.106388 14.677396-32.783784 32.788903-32.783784 18.106388 0 32.784808 14.677396 32.784809 32.783784z" fill="#FC7C21" /><path d="M514.667221 374.315069m-18.330619 0a18.330619 18.330619 0 1 0 36.661238 0 18.330619 18.330619 0 1 0-36.661238 0Z" fill="#FDD72C" /><path d="M420.231206 765.095237c-133.411234 0-241.950246-108.539012-241.950245-241.950245s108.539012-241.950246 241.950245-241.950246c133.413282 0 241.952293 108.539012 241.952293 241.950246S553.644488 765.095237 420.231206 765.095237z m0-461.489689c-121.054986 0-219.539444 98.484458-219.539443 219.539444s98.484458 219.539444 219.539443 219.539443 219.541491-98.484458 219.541491-219.539443-98.485482-219.539444-219.541491-219.539444z" fill="" /><path d="M956.241317 216.866079c0 45.380645-36.787176 82.171917-82.171917 82.171917-45.380645 0-82.171917-36.792295-82.171917-82.171917 0-45.385765 36.791271-82.171917 82.171917-82.171917 45.384741 0 82.171917 36.787176 82.171917 82.171917z" fill="#44BAFC" /><path d="M906.464108 173.703169c0 9.882541-8.009855 17.887277-17.887277 17.887277-9.879469 0-17.887277-8.005759-17.887276-17.887277 0-9.877422 8.007807-17.887277 17.887276-17.887276 9.876398 0 17.887277 8.009855 17.887277 17.887276zM880.091894 244.57344a9.02043 9.02043 0 0 1-9.024526 9.021453c-4.987345 0-9.028621-4.036156-9.02862-9.021453s4.041275-9.031692 9.02862-9.031693c4.985298 0 9.024525 4.046395 9.024526 9.031693zM829.120834 235.546867c0 4.985298-4.041275 9.021454-9.026573 9.021453-4.985298 0-9.026573-4.036156-9.026573-9.021453s4.041275-9.031692 9.026573-9.031693c4.985298 0 9.026573 4.046395 9.026573 9.031693z" fill="#3C8CD4" /><path d="M834.018078 145.749052a80.791719 80.791719 0 0 0-12.202665 4.299295c38.246212-3.696226 74.619739 20.737773 84.725486 59.095589 10.096533 38.357816-9.527253 77.537812-44.631161 93.15923a81.556562 81.556562 0 0 0 12.737134-2.265858c42.603868-11.219735 68.044347-54.854656 56.828707-97.458525-11.218712-42.604892-54.848513-68.049466-97.457501-56.829731z" fill="#3C8CD4" /><path d="M854.147663 306.455021c-48.026365 0-87.098853-39.072488-87.098852-87.098853s39.072488-87.098853 87.098852-87.098853 87.098853 39.072488 87.098853 87.098853-39.072488 87.098853-87.098853 87.098853z m0-156.767082c-38.416177 0-69.668229 31.252052-69.668229 69.668229s31.252052 69.668229 69.668229 69.668229 69.668229-31.252052 69.66823-69.668229-31.252052-69.668229-69.66823-69.668229zM358.67522 542.915193c0 11.46342-9.293807 20.766442-20.767466 20.766443-11.467516 0-20.766442-9.304046-20.766442-20.766443 0-11.46854 9.298927-20.766442 20.766442-20.766442 11.473659-0.001024 20.767466 9.297903 20.767466 20.766442z" fill="" /><path d="M318.549154 581.19929c0 9.210872-7.467196 16.686259-16.688306 16.686259-9.215992 0-16.686259-7.475387-16.68626-16.686259 0-9.215992 7.470267-16.691379 16.68626-16.691379 9.221111 0 16.688307 7.475387 16.688306 16.691379zM513.024909 642.5034c0 9.210872-7.467196 16.686259-16.688307 16.686259-9.215992 0-16.686259-7.475387-16.686259-16.686259 0-9.215992 7.470267-16.691379 16.686259-16.691379 9.221111 0 16.688307 7.474363 16.688307 16.691379z" fill="#FD802E" /><path d="M487.315149 579.803734m-20.14392 0a20.14392 20.14392 0 1 0 40.28784 0 20.14392 20.14392 0 1 0-40.28784 0Z" fill="" /><path d="M363.722975 601.422049a32.035324 32.035324 0 0 0-0.712624 2.325243c-5.153215 19.614571 6.565153 39.690915 26.177676 44.845154s39.689891-6.565153 44.843106-26.179724c0.206825-0.787368 0.378838-1.584974 0.522181-2.373366 0.238565-1.32286-10.144656-5.169597-23.113187-8.579136l-23.371207-6.142288c-12.969555-3.409538-23.902603-5.165501-24.345945-3.895883z" fill="" /><path d="M404.109108 639.12253c-0.82218 3.121826-6.697234 4.29008-13.111876 2.606812-6.42488-1.692482-10.966836-5.597581-10.145679-8.720431 0.82218-3.126946 6.694162-4.29008 13.119042-2.601693 6.417713 1.688387 10.960692 5.588366 10.138513 8.715312z" fill="#FD631F" /><path d="M829.480218 219.118627c-5.519766-0.958357-9.221111-6.210888-8.264802-11.730654l-3.153567-0.544707c-1.257331 7.256275 3.608172 14.167501 10.874686 15.42688 7.26549 1.259379 14.171597-3.608172 15.430976-10.869567l-3.156639-0.544707c-0.952213 5.519766-6.204745 9.220087-11.730654 8.262755zM870.119251 226.933943c-5.524885-0.958357-9.225207-6.210888-8.267874-11.730654l-3.151519-0.549826c-1.259379 7.261395 3.608172 14.167501 10.872638 15.431999 7.263442 1.259379 14.174668-3.613291 15.428928-10.869566l-3.151519-0.549827c-0.958357 5.519766-6.210888 9.225207-11.730654 8.267874z" fill="" /><path d="M831.673687 252.536992a10.872638 12.962388 10.591 1 0 21.37483 3.996716 10.872638 12.962388 10.591 1 0-21.37483-3.996716Z" fill="" /><path d="M846.478762 262.271298c-0.332763 1.789752-3.01739 2.796231-5.993824 2.237189-2.974387-0.554946-5.118403-2.46142-4.783593-4.251172 0.335834-1.789752 3.020462-2.791111 5.996897-2.237189 2.975411 0.560065 5.115331 2.46142 4.78052 4.251172z" fill="#53C7FC" /></svg>