<?xml version="1.0" ?>
<!-- Uploaded to: SVG Repo, www.svgrepo.com, Generator: SVG Repo Mixer Tools -->
<svg width="800px" height="800px" viewBox="0 0 64 64" xmlns="http://www.w3.org/2000/svg">
<defs>
<style>.cls-1{fill:#9dcbf4;}.cls-2{fill:#389ad6;}.cls-3{fill:none;stroke:#2a5081;stroke-linecap:round;stroke-linejoin:round;stroke-width:2px;}.cls-4{fill:#2a5081;}</style>
</defs>
<title/>
<g data-name="Layer 6" id="Layer_6">
<path class="cls-1" d="M30.54,40.59V50.88c-2.67.13-5.38.19-7.63.1-7.26-.28-10.47,3.51-10.39-10.51s.67-25.53.67-25.53,1.55-2.16,10.94-2.22a51.72,51.72,0,0,0,2.41,19.85h-.4v5.94h3.08C29.62,39.21,30.06,39.91,30.54,40.59Z"/>
<path class="cls-2" d="M34,21.39s-7.09,1.38-8.57,7.47-5.73,2.84-6,9.09-7.25,3-6.72,9.33,15.78,3.36,15.78,3.36l2.25-.25-.19-11.31V38.2L27,38H25.66l.72-4s-.72-1.63,1.47-1.38,2.65-1.37,2.7-5.24A7.59,7.59,0,0,1,34,21.39Z"/>
<path class="cls-3" d="M30.54,51H17.22a4.64,4.64,0,0,1-4.63-4.62V17.28a4.64,4.64,0,0,1,4.63-4.63H45.8"/>
<path class="cls-3" d="M50.43,17.28V46.36A4.64,4.64,0,0,1,45.8,51h-9"/>
<circle class="cls-4" cx="50.48" cy="13.95" r="1"/>
<path class="cls-3" d="M30.54,51V38.51h-4.4V32.57h4.4V26.84a6,6,0,0,1,6-6h6.23v5.65H38.21A1.47,1.47,0,0,0,36.74,28v4.54h6v6h-6V51"/>
</g>
</svg>