<?xml version="1.0" encoding="utf-8"?>
<!-- Uploaded to: SVG Repo, www.svgrepo.com, Generator: SVG Repo Mixer Tools -->
<svg width="800px" height="800px" viewBox="0 0 1024 1024" class="icon"  version="1.1" xmlns="http://www.w3.org/2000/svg"><path d="M511 69.8c-243 0-440.7 197.7-440.7 440.7S268 951.2 511 951.2c85.3 0 168.1-24.4 239.4-70.7 11.8-7.6 15.1-23.3 7.5-35.1-7.6-11.7-23.4-15.1-35.1-7.5-63 40.9-136.3 62.5-211.8 62.5-215 0-390-175-390-390s175-390 390-390 390 175 390 390c0 78.9-23.4 155-67.8 219.8-7.9 11.6-4.9 27.3 6.6 35.3 11.5 7.9 27.3 5 35.3-6.6 50.2-73.3 76.7-159.3 76.7-248.5C951.7 267.5 754 69.8 511 69.8z m-77.1 410.6l59.1 31.1c8.2 4.3 13.7 0.4 12.1-8.8l-11.3-65.9c-1.6-9.2 2.6-22 9.2-28.5l47.9-46.6c6.7-6.5 4.6-12.9-4.6-14.3l-66.1-9.6c-9.2-1.4-20.1-9.3-24.2-17.6l-29.6-59.9c-4.1-8.3-10.9-8.3-15 0l-29.6 59.9c-4.1 8.3-15 16.2-24.2 17.6l-66.2 9.6c-9.2 1.4-11.3 7.8-4.6 14.3l47.9 46.6c6.7 6.5 10.8 19.3 9.2 28.5l-11.3 65.9c-1.6 9.2 3.9 13.1 12.1 8.8l59.2-31.1c8.3-4.3 21.8-4.3 30 0z m335.8-136.9l-15.5-2.2c-9.2-1.4-20.1-9.3-24.2-17.6l-6.9-14.1c-4.1-8.3-10.8-8.3-15 0l-7 14.1c-4.1 8.3-15 16.2-24.2 17.6l-15.6 2.3c-9.2 1.3-11.3 7.7-4.6 14.2l11.2 11c6.7 6.5 10.8 19.3 9.2 28.5l-2.6 15.5c-1.6 9.2 3.9 13.1 12.1 8.8l13.9-7.3c8.2-4.3 21.7-4.3 29.9 0l13.9 7.3c8.2 4.3 13.7 0.4 12.1-8.8l-2.7-15.5c-1.6-9.2 2.6-22 9.3-28.5l11.2-11c6.8-6.6 4.7-13-4.5-14.3z m-13 228.3c6.7-6.5 4.6-12.9-4.6-14.3l-15.5-2.2c-9.2-1.4-20.1-9.3-24.2-17.6l-7-14.1c-4.1-8.3-10.8-8.3-15 0l-7 14.1c-4.1 8.3-15 16.3-24.2 17.6l-15.6 2.3c-9.2 1.3-11.3 7.7-4.6 14.2l11.2 11c6.7 6.5 10.8 19.3 9.2 28.5l-2.6 15.5c-1.6 9.2 3.9 13.1 12.1 8.8l13.9-7.3c8.2-4.3 21.7-4.3 29.9 0l13.9 7.3c8.2 4.3 13.7 0.4 12.1-8.8l-2.6-15.5c-1.6-9.2 2.6-22 9.2-28.5l11.4-11zM562.1 699.2c6.7-6.5 4.6-12.9-4.6-14.2l-15.6-2.3c-9.2-1.3-20.1-9.2-24.2-17.6l-6.9-14.1c-4.1-8.3-10.8-8.3-15 0l-6.9 14.1c-4.1 8.4-15 16.3-24.2 17.6l-15.6 2.3c-9.2 1.3-11.3 7.7-4.6 14.2l11.3 10.9c6.7 6.5 10.8 19.3 9.2 28.5l-2.7 15.5c-1.6 9.2 3.9 13.1 12.1 8.8l13.9-7.3c8.2-4.3 21.7-4.3 29.9 0l13.9 7.3c8.2 4.3 13.7 0.4 12.1-8.8l-2.7-15.5c-1.6-9.2 2.6-22 9.2-28.5l11.4-10.9z m-207.4-70.5c6.7-6.5 4.6-12.9-4.6-14.2l-15.5-2.3c-9.2-1.3-20.1-9.2-24.2-17.6l-6.9-14.1c-4.1-8.3-10.8-8.3-15 0l-7 14.1c-4.1 8.3-15 16.2-24.2 17.6l-15.5 2.3c-9.2 1.3-11.3 7.7-4.6 14.2l11.2 10.9c6.7 6.5 10.8 19.3 9.2 28.5l-2.6 15.5c-1.6 9.2 3.9 13.1 12.1 8.8l13.9-7.3c8.2-4.3 21.7-4.3 29.9 0l13.9 7.3c8.2 4.3 13.7 0.4 12.1-8.8l-2.6-15.5c-1.6-9.2 2.6-22 9.2-28.5l11.2-10.9z" fill="url(#gradient)" />
    <defs>
        <linearGradient id="gradient" x1="0%" y1="0%" x2="0%" y2="100%">
          <stop offset="10%" stop-color="#5851DB"/>
          <stop offset="40%" stop-color="#E1306C"/>
          <stop offset="100%" stop-color="#ffff00"/>
        </linearGradient>
      </defs>
</svg>