<?xml version="1.0" ?>
<!-- Uploaded to: SVG Repo, www.svgrepo.com, Generator: SVG Repo Mixer Tools -->
<svg width="800px" height="800px" viewBox="0 0 64 64" xmlns="http://www.w3.org/2000/svg">
<defs>
<style>.cls-1{fill:#9dcbf4;}.cls-2{fill:#389ad6;}.cls-3{fill:none;stroke:#2a5081;stroke-linecap:round;stroke-linejoin:round;stroke-width:2px;}.cls-4{fill:#2a5081;}</style>
</defs>
<title/>
<g data-name="Layer 6" id="Layer_6">
<path class="cls-1" d="M43.66,50c-.77,0-4.23.47-8.4.9-6.32.65-14.27,1.23-17.06,0-4-1.75-5.56.64-5.56-10.42,0-1.86,0-4.11.13-6.82.13-4,0-7.33-.13-10.06-.31-6.86-.57-10,3.39-10.87l.09,0a6.26,6.26,0,0,1,.65-.12h.11a25.14,25.14,0,0,1,4.81,0c1,.07,2,.16,3.23.29A51.88,51.88,0,0,0,25,22.29H24.8a4.26,4.26,0,0,0-2.09,8A10.08,10.08,0,0,0,22.55,32a9.71,9.71,0,0,0,9.3,9.71A23.39,23.39,0,0,0,43.66,50Z"/>
<path class="cls-2" d="M22.16,23.2c-1,.34-2.14,2-2.71,2.86a14.27,14.27,0,0,0-2.24,7.33c-.09,1.2-.36,2.54-1.52,3.14-3.1,1.59-3.18,6-2.87,8.93.94,9.06,22.16,6.73,25-4.76,0,0-2.64,2.88-7.89.57s-7.62-4.37-7.5-8.81-1.85-4.19-1.85-4.19S19.53,24.11,22.16,23.2Z"/>
<path class="cls-3" d="M50.47,17.15V46.23a4.64,4.64,0,0,1-4.62,4.63H17.26a4.64,4.64,0,0,1-4.62-4.62V17.15a4.64,4.64,0,0,1,4.62-4.62H45.85"/>
<circle class="cls-4" cx="50.52" cy="13.82" r="1"/>
<path class="cls-3" d="M29,34.54a2.87,2.87,0,0,0,3.12,2.53,2.87,2.87,0,0,0,3.12-2.53A2.87,2.87,0,0,0,32.14,32,2.87,2.87,0,0,1,29,29.47a2.87,2.87,0,0,1,3.12-2.53,2.87,2.87,0,0,1,3.12,2.53"/>
<path class="cls-3" d="M25,22.29H24.8a4.26,4.26,0,0,0-2.09,8A10.08,10.08,0,0,0,22.55,32a9.71,9.71,0,0,0,9.3,9.71"/>
<path class="cls-3" d="M41.91,33.28A10.86,10.86,0,0,0,42,32a9.72,9.72,0,0,0-9.72-9.72,9.61,9.61,0,0,0-4.57,1.14A4.21,4.21,0,0,0,25,22.29"/>
<path class="cls-3" d="M31.85,41.71h.42a9.62,9.62,0,0,0,4.93-1.35,4.15,4.15,0,0,0,2.28.67,4.26,4.26,0,0,0,4.26-4.26"/>
</g>
</svg>