<?xml version="1.0" ?>
<!-- Uploaded to: SVG Repo, www.svgrepo.com, Generator: SVG Repo Mixer Tools -->
<svg width="800px" height="800px" viewBox="0 0 64 64" xmlns="http://www.w3.org/2000/svg">
<defs>
<style>.cls-1{fill:#9dcbf4;}.cls-2{fill:#389ad6;}.cls-3{fill:none;stroke:#2a5081;stroke-linecap:round;stroke-linejoin:round;stroke-width:2px;}.cls-4{fill:#2a5081;}</style>
</defs>
<title/>
<g data-name="Layer 5" id="Layer_5">
<path class="cls-1" d="M26.8,19.8s5.39.4,3.33,5.19-4.32,4.13-4,7.32c-.33.2-3.83,5.33-5,6.92L28.4,36s1.26.47,2,2.73,6.1-2.2,6.94,2.2-2.69,7.72-9.07,6.26S15.94,40.76,15.92,32.31,22.66,18.4,26.8,19.8Z"/>
<path class="cls-2" d="M31.5,21.25,28,24.94a10,10,0,0,0-4.28,5.94l-3.19.75s-1.32,3.13-.53,5.44-.09,3.09-.09,3.09l8.62-8.06.69-4.91C29.31,26.75,31.5,21.25,31.5,21.25Z"/>
<path class="cls-2" d="M34.69,27.5,30.5,30.19l-2.75,2.68a.41.41,0,0,1-.7-.35c.28-1.77.9-4.93,1.83-5.64C30.19,25.88,34.69,27.5,34.69,27.5Z"/>
<path class="cls-2" d="M32,44s-4.28,3.06-7.53-.37-2.81-3.94-2.81-3.94l7.44-2.81s1.63,1.81,1.81,2.06S32,44,32,44Z"/>
<path class="cls-3" d="M26.52,32.11a5.26,5.26,0,0,1,.21-1.49,5.54,5.54,0,0,1,5.35-4.07,5.17,5.17,0,0,1,1.47.21,5.65,5.65,0,0,1,2.07,1.07"/>
<path class="cls-3" d="M37.15,29.91a5.34,5.34,0,0,1,.47,2.21,5.16,5.16,0,0,1-.21,1.47,5.55,5.55,0,0,1-5.35,4.08,5.17,5.17,0,0,1-1.47-.21,5.3,5.3,0,0,1-2.21-1.21"/>
<polyline class="cls-3" points="33.54 26.77 32.11 20.83 30.75 24"/>
<polyline class="cls-3" points="26.73 30.63 20.8 32.06 24.31 33.69"/>
<polyline class="cls-3" points="33.25 40.54 32.03 43.39 30.6 37.46"/>
<line class="cls-3" x1="43.34" x2="37.42" y1="32.16" y2="33.59"/>
<polyline class="cls-3" points="30.56 30.45 43.77 23.6 32.94 33.91 20.2 40.44"/>
<path class="cls-3" d="M40.68,15.32a18.82,18.82,0,1,0,4.63,3.4"/>
<polyline class="cls-3" points="14.7 17.33 17.5 14.51 20.29 17.3"/>
<circle class="cls-4" cx="43.25" cy="16.92" r="1"/>
</g>
</svg>