<?xml version="1.0" encoding="utf-8"?>
<svg width="800px" height="800px" viewBox="0 0 1024 1024" xmlns="http://www.w3.org/2000/svg">
  <defs>
    <linearGradient id="gradient" x1="0%" y1="0%" x2="0%" y2="100%">
      <stop offset="0.2" stop-color="#5851DB"/>
      <stop offset="0.5" stop-color="#E1306C"/>
      <stop offset="1" stop-color="#ffff00"/>
    </linearGradient>
  </defs>
  <path d="M445.3888 611.09248m-308.47488 0a308.47488 308.47488 0 1 0 616.94976 0 308.47488 308.47488 0 1 0-616.94976 0Z" fill="url(#gradient)"/>
  <path d="M445.39392 927.28832c-174.35648 0-316.19584-141.83936-316.19584-316.19584s141.83936-316.19584 316.19584-316.19584 316.19584 141.83936 316.19584 316.19584-141.83936 316.19584-316.19584 316.19584z m0-616.95488c-165.83168 0-300.75392 134.92224-300.75392 300.75392s134.92224 300.75392 300.75392 300.75392 300.75392-134.92224 300.75392-300.75392-134.92224-300.75392-300.75392-300.75392z" fill="url(#gradient)"/>
  <path d="M543.0272 328.09472c96.59392 49.50016 137.47712 165.22752 124.61056 280.50432-28.07296 251.58656-325.77024 278.72768-355.61984 268.71808a297.38496 297.38496 0 0 0 136.01792 32.78848c165.00224 0 298.76224-133.76 298.76224-298.76224 0-131.77856-85.36064-243.54816-203.77088-283.24864z" fill="#ffff00"/>
  <path d="M383.17056 232.1408c26.31168-5.8112 53.56544-9.10336 81.62816-9.10336 208.33792 0 377.23136 168.89344 377.23136 377.23136 0 115.79392-52.28032 219.27936-134.4 288.47616l10.496 21.248c89.61024-73.38496 146.82112-184.86272 146.82112-309.72416 0-220.99968-179.15392-400.1536-400.1536-400.1536a401.0496 401.0496 0 0 0-92.12416 10.7776l10.50112 21.248z" style="fill: rgb(255, 255, 0);"/>
  <path d="M951.50592 474.9312m-40.45824 0a40.45824 40.45824 0 1 0 80.91648 0 40.45824 40.45824 0 1 0-80.91648 0Z" style="fill: rgb(255, 255, 0);"/>
  <path d="M951.50592 523.1104c-26.5728 0-48.1792-21.6064-48.1792-48.1792s21.6064-48.18944 48.1792-48.18944 48.18944 21.61664 48.18944 48.18944-21.61664 48.1792-48.18944 48.1792z m0-80.9216a32.77824 32.77824 0 0 0-32.73216 32.74752 32.77312 32.77312 0 0 0 32.73216 32.73216c18.05824 0 32.74752-14.68928 32.74752-32.73216a32.77824 32.77824 0 0 0-32.74752-32.74752z" style="fill: rgb(255, 255, 0);"/>
  <path d="M41.56928 418.39616m-30.34624 0a30.34624 30.34624 0 1 0 60.69248 0 30.34624 30.34624 0 1 0-60.69248 0Z" style="fill: rgb(255, 255, 0);"/>
  <path d="M725.37088 882.89792m-30.34624 0a30.34624 30.34624 0 1 0 60.69248 0 30.34624 30.34624 0 1 0-60.69248 0Z" style="fill: rgb(255, 255, 0);"/>
  <path d="M777.3184 207.53408m-30.34624 0a30.34624 30.34624 0 1 0 60.69248 0 30.34624 30.34624 0 1 0-60.69248 0Z" style="fill: rgb(255, 255, 0);"/>
  <path d="M 414.171 182.995 C 412.188 176.78 407.296 172.318 401.475 171.416 L 362.709 165.04 L 345.871 126.351 C 343.251 120.322 337.607 116.438 331.495 116.438 C 325.393 116.438 319.744 120.329 317.117 126.351 L 300.281 165.04 L 261.519 171.43 C 255.686 172.31 250.78 176.779 248.805 183.01 C 246.857 189.256 248.323 196.204 252.557 200.805 L 281.021 232.284 L 274.426 275.89 C 273.43 282.427 276.026 289.143 281.039 292.999 C 285.841 296.645 292.573 297.062 297.765 293.992 L 331.501 273.882 L 365.255 294.012 C 370.576 297.154 377.002 296.765 381.993 292.999 C 386.981 289.15 389.571 282.44 388.582 275.912 L 381.987 232.304 L 410.449 200.825 C 414.677 196.206 416.129 189.246 414.171 182.995 Z" style="fill: rgb(255, 255, 0);"/>
  <path d="M 376.082 298.347 C 371.861 298.338 367.705 297.304 363.971 295.334 L 331.496 278.099 L 299.069 295.302 C 290.889 299.594 279.957 298.988 272.429 293.895 C 264.282 288.31 260.112 278.604 261.73 269.107 L 268.112 231.602 L 240.541 204.461 C 233.653 197.78 231.283 187.698 234.471 178.646 C 237.622 169.713 245.497 163.288 254.876 161.997 L 292.281 156.531 L 308.46 123.364 C 312.718 114.719 321.764 109.154 331.496 109.154 C 341.249 109.154 350.281 114.74 354.519 123.364 L 370.719 156.531 C 350.234 153.603 387.637 159.07 408.123 161.997 C 417.473 163.311 425.323 169.706 428.508 178.6 C 431.703 187.67 429.339 197.772 422.453 204.48 L 394.901 231.621 L 401.282 269.14 C 402.887 278.639 398.711 288.33 390.664 293.862 C 386.364 296.787 381.282 298.351 376.082 298.347 Z M 331.496 259.122 L 371.812 280.517 C 374.802 282.057 378.473 281.858 381.218 280.011 C 383.869 278.192 385.275 275.018 384.754 271.959 L 376.901 225.796 L 410.702 192.53 C 412.973 190.291 413.725 187.144 412.681 184.145 C 411.562 181.14 408.871 179.002 405.692 178.592 L 359.555 171.813 L 339.464 130.723 C 336.619 124.898 326.407 124.877 323.496 130.737 L 303.439 171.808 L 257.281 178.586 C 254.085 178.988 251.383 181.143 250.28 184.171 C 249.247 187.137 250 190.244 252.291 192.503 L 286.078 225.77 L 278.257 271.933 C 277.718 274.992 279.144 278.172 281.842 280.038 C 284.326 281.692 288.436 281.938 291.248 280.478 L 331.496 259.122 Z" style="fill: rgb(255, 255, 0);"/>
  <path d="M 868.799 319.081 C 867.275 319.079 866.041 320.315 866.043 321.838 L 866.038 333.958 C 866.043 335.48 867.277 336.712 868.799 336.716 C 870.319 336.712 871.55 335.479 871.552 333.958 L 871.552 321.838 C 871.552 320.317 870.32 319.083 868.799 319.081 Z M 868.796 360.955 C 867.275 360.955 866.041 362.186 866.038 363.707 L 866.043 375.827 C 866.043 377.349 867.277 378.582 868.799 378.58 C 870.32 378.582 871.554 377.348 871.552 375.827 L 871.552 363.707 C 871.551 362.186 870.317 360.954 868.796 360.955 Z M 856.331 340.261 C 857.406 341.339 859.152 341.339 860.227 340.261 C 861.304 339.186 861.304 337.441 860.227 336.365 L 851.655 327.796 C 850.579 326.721 848.835 326.721 847.759 327.796 C 846.684 328.873 846.684 330.616 847.759 331.692 L 856.331 340.261 Z M 881.258 357.405 C 880.183 356.325 878.443 356.325 877.368 357.405 C 876.292 358.485 876.292 360.221 877.368 361.301 L 885.94 369.87 C 887.016 370.94 888.755 370.94 889.832 369.87 C 890.91 368.795 890.91 367.049 889.832 365.974 L 881.258 357.405 Z M 856.676 348.831 C 856.675 347.31 855.441 346.078 853.921 346.079 L 841.803 346.079 C 839.682 346.079 838.357 348.375 839.417 350.211 C 839.909 351.063 840.819 351.588 841.803 351.588 L 853.921 351.588 C 855.443 351.589 856.678 350.354 856.676 348.831 Z M 895.79 346.078 L 883.671 346.078 C 882.149 346.078 880.916 347.313 880.917 348.835 C 880.916 350.357 882.151 351.591 883.673 351.588 L 895.79 351.588 C 897.313 351.588 898.547 350.354 898.546 348.831 C 898.548 347.309 897.313 346.074 895.79 346.078 Z M 856.331 357.405 L 847.759 365.974 C 846.684 367.05 846.684 368.794 847.759 369.87 C 848.835 370.945 850.579 370.945 851.655 369.87 L 860.227 361.301 C 861.304 360.226 861.304 358.48 860.227 357.405 C 859.153 356.325 857.405 356.325 856.331 357.405 Z M 881.263 340.261 L 889.832 331.692 C 890.907 330.616 890.907 328.873 889.832 327.796 C 888.757 326.721 887.014 326.721 885.94 327.796 L 877.368 336.365 C 876.293 337.442 876.293 339.185 877.368 340.261 C 878.442 341.341 880.189 341.341 881.263 340.261 Z" fill="#FED62C"/>
  <path d="M 87.929 810.657 C 85.188 810.66 82.965 808.438 82.966 805.697 L 82.966 800.731 C 82.885 796.563 78.322 794.046 74.753 796.2 C 73.161 797.161 72.173 798.871 72.137 800.731 L 72.137 805.697 C 72.137 808.438 69.913 810.66 67.171 810.657 L 62.205 810.657 C 59.215 810.659 56.792 813.084 56.792 816.075 C 56.792 819.064 59.216 821.488 62.205 821.488 L 67.171 821.488 C 69.912 821.487 72.135 823.708 72.137 826.449 L 72.137 831.414 C 72.138 834.406 74.561 836.831 77.552 836.833 C 80.543 836.831 82.967 834.405 82.966 831.414 L 82.966 826.449 C 82.966 823.708 85.188 821.487 87.929 821.488 L 92.889 821.488 C 97.058 821.569 99.751 817.107 97.737 813.456 C 96.766 811.696 94.899 810.618 92.889 810.657 L 87.929 810.657 Z" fill="#2BA9FC"/>
</svg>