<?xml version="1.0" encoding="utf-8"?>
<!-- Uploaded to: SVG Repo, www.svgrepo.com, Generator: SVG Repo Mixer Tools -->
<svg width="800px" height="800px" viewBox="0 0 64 64" xmlns="http://www.w3.org/2000/svg">
<path d="m8.92 22.87s-.16-2.21 1.42-2.59a18.23 18.23 0 0 1 3.88-.28 15.64 15.64 0 0 1 5.91-9.33 20.46 20.46 0 0 1 17.34-4.18c6.53 1.21 10.91 8.13 11.37 9.42s1.16 4.37 1.16 4.37 3.12 0 3.71.88a4 4 0 0 1 .63 1.84s3 .38 3.42 1.08.54 11.3.25 12-2.5 1.5-2.71 1.5-.83 0-.83 0-.25 1.54-1 2-5.12.62-5.12.62a8.81 8.81 0 0 1 -1.38 5c-1.54 2.17-7.41 10.3-9.79 11.75s-7.33.71-8.29.42-7.37-6.62-9.29-8.62a13.71 13.71 0 0 1 -3.21-5c-.08-.63-.29-2.71-.29-2.71s-2.75.17-4.08.08a4.67 4.67 0 0 1 -2.84-1.12 23.15 23.15 0 0 1 -.33-3.5s-2.25.08-2.58-1-.55-11.18-.27-11.63a2.85 2.85 0 0 1 2.92-1z" fill="#1d1d1b"/>
<path d="m7.84 24.66c.16-.35 1.08-.21 1.13 0s-.05 10.34-.21 10.34-.75.21-.92-.08a92.22 92.22 0 0 1 0-10.26z" fill="#a42116"/>
<path d="m11.22 22a2.29 2.29 0 0 1 2-.12 5.2 5.2 0 0 1 2 .79c.33.37 1 .67 1 .54a11.9 11.9 0 0 0 -.17-1.92 2.62 2.62 0 0 0 -.33-.75s2.28-6.54 7.37-9.54a20.09 20.09 0 0 1 16-1.87c5.08 1.5 8.71 9 9.21 10.66s.37 4.55.58 4.67a5.4 5.4 0 0 0 1.33.13 19.54 19.54 0 0 1 .21-2.59c.13 0 2.25.25 2.42 1.67s-.08 9.21-.08 9.21l-1.63-1s-.25 1.08 0 1.21 1.25.58 1.29.75 0 1.25 0 1.25-2-1.34-2.08-1.21-.42.62-.21.83 2.25 1.84 2.29 2.21a3.87 3.87 0 0 1 0 .92 18.84 18.84 0 0 0 -2.5-2c-.29 0-.41.46-.33.66s1.58 1.55 1.42 1.67a14.69 14.69 0 0 1 -2.3.13s-.37-11.75-.58-11.88a7.5 7.5 0 0 0 -2 .13 2 2 0 0 1 -.58-.05s-3.08-2.95-3.38-2.83a.67.67 0 0 0 -.37.71c.08.17 2.67 2.42 2.67 2.42l-1 .08a28.81 28.81 0 0 0 -2.29-1.88.55.55 0 0 0 -.42.38c0 .12 1.87 1.5 1.58 1.5a7.18 7.18 0 0 1 -4.91-1.67c-2.55-1.91-3-2.16-3.25-2.87s-.55-1-.92-1.13a1.31 1.31 0 0 0 -1.46 1c-.33.88-2.37 2.83-6 4.5a22.08 22.08 0 0 1 -7.71 1.83 5.49 5.49 0 0 1 -1.37-.16s.16-2-.09-2.13-.75.09-.75.21.46 11.71.13 12.42-2.5.79-3.46.83a1.61 1.61 0 0 1 -1.55-.8c-.08-.21-.62-16.17.22-16.91z" fill="#a42116"/>
<g fill="#1d1d1b">
<path d="m12.76 23.82c.14-.09.54.09.54.38s.12 5.75-.17 5.92-.58.12-.62-.05 0-6.07.25-6.25z"/>
<path d="m12.59 32.24c.13 0 .46-.17.46 0s0 5.54 0 5.67-.33.21-.42 0-.04-5.67-.04-5.67z"/>
<path d="m14.13 29.7c0-.12.59-.25.63 0s.12 7.75 0 7.75-.42 0-.5-.17-.17-7.37-.13-7.58z"/>
<path d="m18.92 18.74c-.13-.18.5-1.67 1.84-3.29s2.08-2.63 2.54-2.54.75.12.58.29-2.29 2.67-2.83 3.5-.83 2.12-1 2.25a1.43 1.43 0 0 1 -1.13-.21z"/>
<path d="m43.51 22.28a17.07 17.07 0 0 1 3.29 3c0 .21-.33.63-.46.54s-3.12-2.58-3.25-2.75.17-.7.42-.79z"/>
<path d="m44.05 21.28s.12-.54.46-.5a16.29 16.29 0 0 1 3.21 3.09 1.79 1.79 0 0 1 -.13.41s-3.29-2.75-3.54-3z"/>
<path d="m44.8 19.7c-.11-.07.33-.71.54-.67a13.66 13.66 0 0 1 2.58 2.63c0 .25-.12.62-.25.58s-2.67-2.42-2.87-2.54z"/>
<path d="m45.38 17.82s.13-.54.29-.54a1.19 1.19 0 0 1 .8.75c0 .38 0 .71-.13.67s-.79-.83-.96-.88z"/>
<path d="m50.84 26a.24.24 0 0 1 .38.17 14.51 14.51 0 0 1 0 3.54c-.25.33-.5.29-.58 0a18.09 18.09 0 0 1 .2-3.71z"/>
</g>
<path d="m55 25c.14-.21 1 .33 1 .33s.21 9.5 0 9.75-1.62 1.13-1.62.79.42-10.63.62-10.87z" fill="#a42116"/>
<path d="m18.26 30.28c0-.26 5.54-.33 7.75-1.54s6.75-4.29 6.75-4.29 4 3 5.33 3.71a16.87 16.87 0 0 0 5.21.84c.71 0 3-.16 3-.16s.38 13.16-.21 14.2-9.71 12-10.37 12.38-5.42.21-5.79 0-8.92-8-10-9.46a8.33 8.33 0 0 1 -1.54-2.58c-.05-.18-.17-12.68-.13-13.1z" fill="#ffe19b"/>
<path d="m25.42 31.57a2.42 2.42 0 0 1 3 2 2.47 2.47 0 0 1 -3.66 2.34 2.37 2.37 0 0 1 .66-4.34z" fill="#1d1d1b"/>
<path d="m25.69 32.66a1.27 1.27 0 0 1 1.56 1.06 1.31 1.31 0 0 1 -1.94 1.28 1.25 1.25 0 0 1 .38-2.34z" fill="#85bfe9"/>
<path d="m38.22 31.7a2.4 2.4 0 0 1 3 2 2.47 2.47 0 0 1 -3.71 2.3 2.36 2.36 0 0 1 .71-4.3z" fill="#1d1d1b"/>
<path d="m38.48 32.79a1.27 1.27 0 0 1 1.52 1.05 1.31 1.31 0 0 1 -1.94 1.24 1.25 1.25 0 0 1 .42-2.29z" fill="#85bfe9"/>
<path d="m26.8 44.05c.43-.1 2.27 2 6.56 1.45a17.69 17.69 0 0 0 4.93-1.13 1 1 0 0 1 .81.82c0 .19-2.76 1.59-7 1.53-4.48-.06-5.82-1.63-6-1.87s.27-.71.7-.8z" fill="#1d1d1b"/>
</svg>