<?xml version="1.0" encoding="utf-8"?>
<!-- Uploaded to: SVG Repo, www.svgrepo.com, Generator: SVG Repo Mixer Tools -->
<svg width="800px" height="800px" viewBox="0 0 1024 1024" class="icon"  version="1.1" xmlns="http://www.w3.org/2000/svg"><path d="M251.643368 440.763179a10.034076 10.034076 0 0 1-8.157294-4.170285c-3.243669-4.498952-2.225927-10.777417 2.274049-14.023134 15.74838-11.35284 34.913466-21.48521 56.964884-30.115539 5.168573-2.023197 10.994481 0.525253 13.01563 5.693826 2.022174 5.166525-0.527301 10.993457-5.692802 13.014607-20.482826 8.015998-38.159182 17.33745-52.537604 27.705313a10.017694 10.017694 0 0 1-5.866863 1.895212z" fill="" /><path d="M833.594189 841.080839h20.369175" fill="#FEDEBB" /><path d="M853.963364 851.126178h-20.369175a10.044315 10.044315 0 0 1-10.045338-10.045339 10.044315 10.044315 0 0 1 10.045338-10.045339h20.369175a10.044315 10.044315 0 0 1 10.045339 10.045339c0 5.547411-4.496904 10.045339-10.045339 10.045339z" fill="" /><path d="M760.486729 841.080839h39.623339" fill="#FEDEBB" /><path d="M800.110068 851.126178h-39.622315a10.044315 10.044315 0 0 1-10.045339-10.045339 10.044315 10.044315 0 0 1 10.045339-10.045339h39.622315a10.044315 10.044315 0 0 1 10.045339 10.045339c0 5.547411-4.497928 10.045339-10.045339 10.045339z" fill="" /><path d="M369.287792 841.080839h351.018606" fill="#FEDEBB" /><path d="M720.306398 851.126178H369.287792a10.044315 10.044315 0 0 1-10.045339-10.045339 10.044315 10.044315 0 0 1 10.045339-10.045339h351.018606a10.044315 10.044315 0 0 1 10.045339 10.045339c0 5.547411-4.497928 10.045339-10.045339 10.045339z" fill="" /><path d="M311.541683 841.080839h20.648696" fill="#FEDEBB" /><path d="M332.190379 851.126178h-20.648696a10.044315 10.044315 0 0 1-10.045339-10.045339 10.044315 10.044315 0 0 1 10.045339-10.045339h20.648696a10.044315 10.044315 0 0 1 10.045339 10.045339c0 5.547411-4.497928 10.045339-10.045339 10.045339z" fill="" /><path d="M169.202169 370.765258m-6.697234 0a6.697234 6.697234 0 1 0 13.394468 0 6.697234 6.697234 0 1 0-13.394468 0Z" fill="#FD5C1E" /><path d="M835.948102 549.163966a6.69621 6.69621 0 1 1-13.394468 0 6.69621 6.69621 0 0 1 6.697234-6.697234 6.699282 6.699282 0 0 1 6.697234 6.697234z" fill="#FDD72C" /><path d="M738.596061 701.620491c-10.904379 0-19.774297-8.869919-19.774297-19.77225 0-10.904379 8.869919-19.776345 19.774297-19.776345 10.902331 0 19.77225 8.871966 19.77225 19.776345 0 10.902331-8.869919 19.77225-19.77225 19.77225z m0-30.619291c-5.97949 0-10.844993 4.865503-10.844993 10.847041 0 5.97949 4.865503 10.842946 10.844993 10.842946 5.97949 0 10.842946-4.863455 10.842946-10.842946 0-5.981538-4.863455-10.847041-10.842946-10.847041zM247.932808 313.35396a3.44947 3.44947 0 0 1-3.452542-3.448445v-3.453566a3.76585 3.76585 0 1 0-7.5317 0v3.453566a3.44947 3.44947 0 0 1-3.452542 3.448445h-3.453565a3.76585 3.76585 0 0 0 0 7.533749h3.453565a3.450494 3.450494 0 0 1 3.452542 3.453565v3.453565a3.76585 3.76585 0 0 0 7.5317 0v-3.453565a3.450494 3.450494 0 0 1 3.452542-3.453565h3.450493a3.767898 3.767898 0 0 0 0-7.533749h-3.450493zM811.582703 411.433983a3.44947 3.44947 0 0 1-3.452542-3.448445v-3.453566a3.76585 3.76585 0 1 0-7.5317 0v3.453566a3.450494 3.450494 0 0 1-3.452541 3.448445h-3.452542a3.76585 3.76585 0 0 0 0 7.533749h3.452542a3.450494 3.450494 0 0 1 3.452541 3.453565v3.453565a3.76585 3.76585 0 0 0 7.5317 0v-3.453565a3.451517 3.451517 0 0 1 3.452542-3.453565h3.450493a3.767898 3.767898 0 0 0 0-7.533749h-3.450493zM233.883053 678.081367a3.450494 3.450494 0 0 1-3.453565-3.453565v-3.452542a3.76585 3.76585 0 1 0-7.531701 0v3.452542a3.452541 3.452541 0 0 1-3.453565 3.453565h-3.450493a3.767898 3.767898 0 0 0 0 7.533748h3.450493a3.450494 3.450494 0 0 1 3.453565 3.448446v3.453565a3.76585 3.76585 0 1 0 7.531701 0v-3.453565a3.450494 3.450494 0 0 1 3.453565-3.448446h3.453565a3.767898 3.767898 0 0 0 0-7.533748h-3.453565z" fill="#2BA9FC" /><path d="M887.704481 610.599133a4.607484 4.607484 0 0 1-4.604412-4.608508v-4.604412a5.025229 5.025229 0 1 0-10.049435 0v4.604412a4.609532 4.609532 0 0 1-4.608508 4.608508h-4.604412a5.025229 5.025229 0 0 0 0 10.049434h4.604412a4.60646 4.60646 0 0 1 4.608508 4.604413v4.608508a5.025229 5.025229 0 0 0 10.049435 0v-4.608508a4.604412 4.604412 0 0 1 4.604412-4.604413h4.608508a5.026253 5.026253 0 0 0 5.024205-5.027277 5.022158 5.022158 0 0 0-5.024205-5.022157h-4.608508z" fill="#FD5C1E" /><path d="M101.492633 449.945382a6.114643 6.114643 0 0 1-6.116691-6.116691v-6.116691a6.675732 6.675732 0 0 0-6.672661-6.674708 6.678804 6.678804 0 0 0-6.674708 6.674708v6.116691a6.112595 6.112595 0 0 1-6.114643 6.116691h-6.116691a6.671637 6.671637 0 0 0-6.672661 6.674709 6.667541 6.667541 0 0 0 6.672661 6.670612h6.116691a6.112595 6.112595 0 0 1 6.114643 6.116691v6.121811a6.671637 6.671637 0 0 0 6.674708 6.666517 6.668565 6.668565 0 0 0 6.672661-6.666517v-6.121811c0-3.378822 2.735822-6.116691 6.116691-6.116691h6.114643a6.668565 6.668565 0 0 0 6.674708-6.670612 6.672661 6.672661 0 0 0-6.674708-6.674709h-6.114643z" fill="#FED62C" /><path d="M701.288752 524.098229c0 110.955381-89.94935 200.903707-200.905755 200.903707-110.958453 0-200.883229-89.94935-200.883229-200.903707 0-110.955381 89.924776-200.903707 200.883229-200.903707 110.956405 0 200.905755 89.94935 200.905755 200.903707z" fill="#FDD72C" /><path d="M507.081255 323.194522a201.785272 201.785272 0 0 0-37.226423 3.457661c87.97837 21.376678 153.305326 100.661238 153.305326 195.213976 0 98.237701-70.512935 179.989825-163.68138 197.44707a201.272306 201.272306 0 0 0 47.603501 5.689731c110.955381 0 200.903707-89.94935 200.903707-200.903707-0.001024-110.955381-89.950374-200.904731-200.904731-200.904731zM436.018494 485.033932c0 14.174668-11.494137 25.670853-25.672901 25.670853s-25.667781-11.497208-25.667781-25.670853c0-14.178764 11.489017-25.670853 25.667781-25.670853 14.178764 0 25.672901 11.492089 25.672901 25.670853z" fill="#FC7C21" /><path d="M615.71856 424.762923m-29.392676 0a29.392676 29.392676 0 1 0 58.785352 0 29.392676 29.392676 0 1 0-58.785352 0Z" fill="#FC7C21" /><path d="M540.80087 595.155871c0 8.143984-6.600989 14.744973-14.744972 14.744972s-14.744973-6.600989-14.744973-14.744972c0-8.139888 6.600989-14.740877 14.744973-14.740877 8.143984 0.001024 14.744973 6.600989 14.744972 14.740877z" fill="#FC7C21" /><path d="M583.732382 377.649863m-8.562753 0a8.562753 8.562753 0 1 0 17.125506 0 8.562753 8.562753 0 1 0-17.125506 0Z" fill="#FDD72C" /><path d="M601.973923 635.711968m-9.678788 0a9.678788 9.678788 0 1 0 19.357576 0 9.678788 9.678788 0 1 0-19.357576 0Z" fill="#FDD72C" /><path d="M564.374806 663.614891m-4.65663 0a4.65663 4.65663 0 1 0 9.31326 0 4.65663 4.65663 0 1 0-9.31326 0Z" fill="#FDD72C" /><path d="M477.481754 740.99912c-119.588782 0-216.881437-97.30187-216.881437-216.900891s97.292655-216.900891 216.881437-216.900891c119.601069 0 216.904987 97.30187 216.904987 216.900891S597.082823 740.99912 477.481754 740.99912z m0-413.711104c-108.510343 0-196.790759 88.287584-196.790759 196.810213s88.280417 196.810213 196.790759 196.810213c108.524677 0 196.814309-88.287584 196.814309-196.810213S586.006431 327.288016 477.481754 327.288016z" fill="" /><path d="M483.268754 640.386005c-75.168541 0-145.999904-13.783544-199.443646-38.814469-55.870351-26.166413-86.639128-61.862127-86.639129-100.514822 0-9.46582 1.883949-18.901947 5.599629-28.053434 2.086678-5.145024 7.943302-7.614635 13.086278-5.530005 5.139904 2.088726 7.615659 7.946374 5.527957 13.086278-2.735822 6.740237-4.123186 13.636105-4.123186 20.498185 0 64.633785 121.808565 119.238613 265.992097 119.238613 110.458797 0 210.874302-31.779353 249.868975-79.077735 3.525237-4.281888 9.860016-4.894172 14.138832-1.360744 4.281888 3.527285 4.890076 9.860016 1.360744 14.138832-43.263251 52.480266-147.428224 86.3893-265.368551 86.389301z" fill="" /><path d="M740.880349 557.651975a9.993121 9.993121 0 0 1-6.382901-2.295551c-4.281888-3.529333-4.890076-9.860016-1.360743-14.138832 10.711888-12.995153 16.144624-26.506343 16.144623-40.160878 0-37.471131-41.28408-73.451485-110.434223-96.249316-5.268914-1.735486-8.131697-7.416001-6.394164-12.684916 1.735486-5.268914 7.413954-8.131697 12.684916-6.394164 78.950774 26.026141 124.233126 68.062777 124.233125 115.328396 0 18.442222-6.975731 36.252708-20.735725 52.93999a10.01667 10.01667 0 0 1-7.754908 3.655271z" fill="" /><path d="M884.333851 249.529045m-73.664454 0a73.664454 73.664454 0 1 0 147.328907 0 73.664454 73.664454 0 1 0-147.328907 0Z" fill="#44BAFC" /><path d="M810.671445 210.83949m-23.066089 0a23.066089 23.066089 0 1 0 46.132177 0 23.066089 23.066089 0 1 0-46.132177 0Z" fill="#3C8CD4" /><path d="M883.873102 263.207129m-13.734398 0a13.734398 13.734398 0 1 0 27.468796 0 13.734398 13.734398 0 1 0-27.468796 0Z" fill="#3C8CD4" /><path d="M848.430288 185.774777a72.445006 72.445006 0 0 0-10.939191 3.853905c34.285824-3.313293 66.8935 18.590686 75.951813 52.97685 9.053194 34.391284-8.539204 69.509527-40.01139 83.514231a71.981186 71.981186 0 0 0 11.418369-2.031389c38.195018-10.058649 61.00104-49.171069 50.945462-87.368135-10.057626-38.19297-49.170045-61.004112-87.365063-50.945462z" fill="#3C8CD4" /><path d="M862.012127 332.075704c-44.286112 0-80.313565-36.028477-80.313565-80.313565s36.028477-80.313565 80.313565-80.313565 80.313565 36.028477 80.313565 80.313565-36.028477 80.313565-80.313565 80.313565z m0-140.537476c-33.206649 0-60.222887 27.016238-60.222887 60.222887s27.016238 60.222887 60.222887 60.222887 60.222887-27.016238 60.222887-60.222887-27.016238-60.222887-60.222887-60.222887z" fill="" /></svg>